<?xml version="1.0" encoding="UTF-8" standalone="no"?>
<!-- Created with Inkscape (http://www.inkscape.org/) -->

<svg
   version="1.1"
   id="svg1"
   width="5333.3335"
   height="5333.3335"
   viewBox="0 0 5333.3335 5333.3335"
   sodipodi:docname="favicon.svg"
   inkscape:version="1.4.2 (ebf0e940d0, 2025-05-08)"
   xmlns:inkscape="http://www.inkscape.org/namespaces/inkscape"
   xmlns:sodipodi="http://sodipodi.sourceforge.net/DTD/sodipodi-0.dtd"
   xmlns="http://www.w3.org/2000/svg"
   xmlns:svg="http://www.w3.org/2000/svg">
  <defs
     id="defs1" />
  <sodipodi:namedview
     id="namedview1"
     pagecolor="#ffffff"
     bordercolor="#000000"
     borderopacity="0.25"
     inkscape:showpageshadow="2"
     inkscape:pageopacity="0.0"
     inkscape:pagecheckerboard="0"
     inkscape:deskcolor="#d1d1d1"
     inkscape:zoom="0.17831249"
     inkscape:cx="2666.6667"
     inkscape:cy="2666.6667"
     inkscape:window-width="2048"
     inkscape:window-height="1209"
     inkscape:window-x="0"
     inkscape:window-y="0"
     inkscape:window-maximized="1"
     inkscape:current-layer="g1">
    <inkscape:page
       x="0"
       y="0"
       inkscape:label="1"
       id="page1"
       width="5333.3335"
       height="5333.3335"
       margin="0"
       bleed="0" />
  </sodipodi:namedview>
  <g
     id="g1"
     inkscape:groupmode="layer"
     inkscape:label="1">
    <g
       id="group-R5">
      <path
         id="path2"
         d="M 0,0 H 40000 V 40000 H 0 Z"
         style="fill:#67e9ff;fill-opacity:1;fill-rule:nonzero;stroke:none"
         transform="matrix(0.13333333,0,0,-0.13333333,0,5333.3333)" />
      <path
         id="path3"
         d="m 31043.7,8376.2 c 0,0 -690.3,7290.5 -1876.6,9425.9 -1186.3,2135.4 -5090.4,1576.6 -5090.4,1576.6 0,0 -813,-800.1 -1258.6,-864.8 -445.4,-64.7 -2818.1,-107.7 -2818.1,-107.7 0,0 -2372.7,43 -2818.1,107.7 -445.5,64.7 -1258.6,864.8 -1258.6,864.8 0,0 -3904.1,558.8 -5090.4,-1576.6 C 9646.57,15666.7 8956.34,8376.2 8956.34,8376.2 c -165.48,-1503 -86.28,-3278.6 1078.46,-3731.6 1164.8,-453 2113.9,-86.3 2113.9,-86.3 0,0 1531.4,1747.2 2178.5,2782.5 647.1,1035.4 2178.5,1164.8 2178.5,1164.8 h 3494.3 3494.3 c 0,0 1531.4,-129.4 2178.5,-1164.8 647.1,-1035.3 2178.6,-2782.5 2178.6,-2782.5 0,0 949,-366.7 2113.8,86.3 1164.8,453 1243.9,2228.6 1078.5,3731.6"
         style="fill:#ffffff;fill-opacity:1;fill-rule:nonzero;stroke:none"
         transform="matrix(0.13333333,0,0,-0.13333333,0,5333.3333)" />
      <path
         id="path4"
         d="m 11967.1,4955.3 c 0,0 -792.6,1516.6 -140.2,2658.2 652.5,1141.6 2627.9,3526.6 2627.9,3526.6 l 245.1,53.9 c 0,0 -20.4,1348.7 1173.1,1652.5 1193.5,303.7 1826.2,-623.4 1826.2,-623.4 h 1123.2 163.8 l 323.6,-579.1 h 1337.3 l 420.6,579.1 h 1060.5 l 327.2,114.5 c 0,0 645.5,639.1 1694.2,431.1 1048.7,-208 1088.4,-1124.7 1088.4,-1124.7 l 100.5,-355.9 235.9,-179.3 c 0,0 1110,-1168.8 1880.4,-2259.9 770.4,-1091.1 989.9,-1594.4 908.9,-2507.5 -81,-913.1 -441.5,-1641.8 -441.5,-1641.8 l -221.8,31.3 -1792.7,2256.6 c 0,0 -315.2,990 -1752.5,1383.5 -725.6,242.4 -6991.6,134.6 -6991.6,134.6 0,0 -1190.3,151 -2092.4,-463.7 C 14169,7427.1 13664.7,6380.1 13203,5817.2 12741.4,5254.3 12223.8,4644.7 12223.8,4644.7 l -256.7,310.6"
         style="fill:#6c5d75;fill-opacity:1;fill-rule:nonzero;stroke:none"
         transform="matrix(0.13333333,0,0,-0.13333333,0,5333.3333)" />
      <path
         id="path5"
         d="m 28766.1,5053.4 c -194.3,0.1 -365.1,17.4 -505,39.9 208.2,589.2 416.2,1519.6 119.7,2427.7 -5,15.3 -10.2,30.8 -15.7,46.3 117.8,-14.8 252.5,-25 401,-25 341,0 754.4,53.5 1199.1,226.4 423.4,164.7 703.2,504.4 879.9,942.2 22.7,-215.7 34.8,-340.9 35.7,-350.2 l 0.2,-2.4 c 73.9,-671.1 101.7,-1424.7 -10.6,-2072.6 -175.1,-468.6 -461.3,-833.2 -905.2,-1005.8 -444.8,-173 -858,-226.5 -1199.1,-226.5 m -17532.2,0 c -341,0 -754.4,53.5 -1199.1,226.5 -443.73,172.5 -729.94,537.2 -905.06,1005.5 -112.46,648.4 -84.52,1402.9 -10.49,2075.3 0.88,9.3 12.91,134.5 35.63,350.1 176.76,-437.7 456.49,-777.4 879.92,-942.1 444.8,-172.9 858,-226.4 1199.1,-226.4 148.4,0 283.2,10.2 401,25 -5.5,-15.5 -10.7,-31 -15.7,-46.3 -296.5,-908.1 -88.5,-1838.6 119.7,-2427.7 -139.9,-22.5 -310.7,-39.9 -505,-39.9"
         style="fill:#c3bac7;fill-opacity:1;fill-rule:nonzero;stroke:none"
         transform="matrix(0.13333333,0,0,-0.13333333,0,5333.3333)" />
      <path
         id="path6"
         d="m 12063.5,5165.7 c -195,542.3 -404.7,1422.2 -133.2,2253.7 23.2,70.9 51.8,145 85.2,221.6 86.1,23.3 133.2,41.5 133.2,41.5 0,0 1531.4,1747.1 2178.5,2782.4 74.5,119.2 160.6,226.3 254.9,322.7 120.2,-523.8 467.6,-961.9 932.5,-1204.7 3.1,-1.7 6.3,-3.4 9.5,-4.9 248.5,-127.9 530.1,-200.1 828.2,-200.1 1001.5,0 1816.2,814.7 1816.2,1816.1 0,150.1 -18.4,296.1 -52.9,435.7 H 19837 c 7.2,-83.7 77.4,-149.4 163,-149.4 h 690.2 c 59.3,0 114,32.1 142.9,83.8 l 36.7,65.6 h 1183.4 c -37.8,-138.8 -58,-284.9 -58,-435.7 0,-520.6 240.7,-984.9 616.9,-1287.8 238.4,-214.9 571.1,-364.6 1035.6,-364.6 v 0 c 1,0 2,0 3.1,0 733.2,0.9 1140.4,346.4 1366.7,727.9 129.6,191.6 220,411.9 259.8,649.3 149.5,-127.6 285.3,-277.6 395.5,-453.9 647.1,-1035.3 2178.6,-2782.4 2178.6,-2782.4 0,0 47,-18.2 133.1,-41.5 33.4,-76.6 62,-150.7 85.2,-221.6 271.5,-831.5 61.8,-1711.4 -133.2,-2253.7 -55.4,16.4 -85.1,27.9 -85.1,27.9 0,0 -1531.5,1747.1 -2178.6,2782.5 -647.1,1035.3 -2178.5,1164.7 -2178.5,1164.7 H 20000 16505.7 c 0,0 -1531.4,-129.4 -2178.5,-1164.7 -647.1,-1035.4 -2178.5,-2782.5 -2178.5,-2782.5 0,0 -29.8,-11.5 -85.2,-27.9"
         style="fill:#5c4967;fill-opacity:1;fill-rule:nonzero;stroke:none"
         transform="matrix(0.13333333,0,0,-0.13333333,0,5333.3333)" />
      <path
         id="path7"
         d="m 14713.6,14904.6 c 0,-849.8 -688.9,-1538.7 -1538.7,-1538.7 -849.7,0 -1538.6,688.9 -1538.6,1538.7 0,849.7 688.9,1538.6 1538.6,1538.6 849.8,0 1538.7,-688.9 1538.7,-1538.6"
         style="fill:#6c5d75;fill-opacity:1;fill-rule:nonzero;stroke:none"
         transform="matrix(0.13333333,0,0,-0.13333333,0,5333.3333)" />
      <path
         id="path8"
         d="m 11828.4,18792.1 c 0,0 241.4,266.6 1625.3,547.8 648.2,120.2 1403,100.9 1850.4,81.6 225,-9.7 372.3,-19.4 389.2,-11.3 50.3,24 230,146.2 230,146.2 0,0 86.3,783.7 -496.1,920.3 -582.3,136.6 -2085.3,-86.9 -2922.8,-280.7 -837.5,-193.8 -872.6,-395.6 -1013.2,-647 -140.6,-251.4 -209.9,-868 -209.9,-868 l 98,-138.3 449.1,249.4"
         style="fill:#6c5d75;fill-opacity:1;fill-rule:nonzero;stroke:none"
         transform="matrix(0.13333333,0,0,-0.13333333,0,5333.3333)" />
      <path
         id="path9"
         d="m 18004.8,11194 c 0,-912.6 -739.8,-1652.4 -1652.5,-1652.4 -912.6,0 -1652.4,739.8 -1652.4,1652.4 0,912.6 739.8,1652.5 1652.4,1652.5 912.7,0 1652.5,-739.9 1652.5,-1652.5"
         style="fill:#6c5d75;fill-opacity:1;fill-rule:nonzero;stroke:none"
         transform="matrix(0.13333333,0,0,-0.13333333,0,5333.3333)" />
      <path
         id="path10"
         d="m 21995.2,11194 c 0,-912.6 739.8,-1652.4 1652.5,-1652.4 912.6,0 1652.4,739.8 1652.4,1652.4 0,912.6 -739.8,1652.5 -1652.4,1652.5 -912.7,0 -1652.5,-739.9 -1652.5,-1652.5"
         style="fill:#6c5d75;fill-opacity:1;fill-rule:nonzero;stroke:none"
         transform="matrix(0.13333333,0,0,-0.13333333,0,5333.3333)" />
      <path
         id="path11"
         d="m 24156,19833.4 c 0,0 165.1,600.2 416.8,643.3 251.6,43.2 1481.1,37.1 2631.5,-157.6 1150.3,-194.7 1236.8,-545.8 1319.7,-808.8 82.8,-262.9 198.2,-853.6 198.2,-853.6 l -137.5,-67.3 c 0,0 -839.9,613.7 -2167.1,770.6 -1327.2,156.9 -2261.6,28.7 -2261.6,28.7 l -59.2,155.3 59.2,289.4"
         style="fill:#6c5d75;fill-opacity:1;fill-rule:nonzero;stroke:none"
         transform="matrix(0.13333333,0,0,-0.13333333,0,5333.3333)" />
      <path
         id="path12"
         d="m 16352.3,12682.8 c -820.9,0 -1488.8,-667.8 -1488.8,-1488.8 0,-820.9 667.9,-1488.8 1488.8,-1488.8 821,0 1488.9,667.9 1488.9,1488.8 0,821 -667.9,1488.8 -1488.9,1488.8 m 0,-3304.9 c -1001.4,0 -1816.1,814.7 -1816.1,1816.1 0,1001.4 814.7,1816.2 1816.1,1816.2 1001.5,0 1816.2,-814.8 1816.2,-1816.2 0,-1001.4 -814.7,-1816.1 -1816.2,-1816.1"
         style="fill:#371a45;fill-opacity:1;fill-rule:nonzero;stroke:none"
         transform="matrix(0.13333333,0,0,-0.13333333,0,5333.3333)" />
      <path
         id="path13"
         d="m 12148.7,4394.7 c -57.5,0 -113.3,30.4 -143.1,84.2 -35.5,63.9 -863.2,1581.8 -386.4,3042.1 466.6,1429.2 2876.3,3902 2978.7,4006.5 63.2,64.7 166.8,65.8 231.4,2.5 64.6,-63.1 65.7,-166.8 2.5,-231.4 -24.6,-25.1 -2458.5,-2522.5 -2901.5,-3879.2 -431.8,-1322.6 353.5,-2767.3 361.5,-2781.8 43.7,-79 15.1,-178.6 -63.9,-222.4 -25.1,-13.9 -52.4,-20.5 -79.2,-20.5"
         style="fill:#371a45;fill-opacity:1;fill-rule:nonzero;stroke:none"
         transform="matrix(0.13333333,0,0,-0.13333333,0,5333.3333)" />
      <path
         id="path14"
         d="m 20000,11480.3 h -690.2 c -59.3,0 -114,32.1 -142.9,83.8 l -276.7,495.3 h -1245.4 c -90.4,0 -163.7,73.3 -163.7,163.7 0,90.4 73.3,163.7 163.7,163.7 h 1341.4 c 59.3,0 114,-32.1 142.9,-83.9 l 276.7,-495.3 h 594.2 c 90.4,0 163.7,-73.3 163.7,-163.6 0,-90.4 -73.3,-163.7 -163.7,-163.7"
         style="fill:#371a45;fill-opacity:1;fill-rule:nonzero;stroke:none"
         transform="matrix(0.13333333,0,0,-0.13333333,0,5333.3333)" />
      <path
         id="path15"
         d="m 17871.8,14667.3 c 0,-337.5 -273.6,-611.1 -611.1,-611.1 -337.6,0 -611.2,273.6 -611.2,611.1 0,337.5 273.6,611.1 611.2,611.1 337.5,0 611.1,-273.6 611.1,-611.1"
         style="fill:#6c5d75;fill-opacity:1;fill-rule:nonzero;stroke:none"
         transform="matrix(0.13333333,0,0,-0.13333333,0,5333.3333)" />
      <path
         id="path16"
         d="m 22128.2,14667.3 c 0,-337.5 273.6,-611.1 611.2,-611.1 337.5,0 611.1,273.6 611.1,611.1 0,337.5 -273.6,611.1 -611.1,611.1 -337.6,0 -611.2,-273.6 -611.2,-611.1"
         style="fill:#6c5d75;fill-opacity:1;fill-rule:nonzero;stroke:none"
         transform="matrix(0.13333333,0,0,-0.13333333,0,5333.3333)" />
      <path
         id="path17"
         d="M 20690.2,11480.3 H 20000 c -90.4,0 -163.6,73.3 -163.6,163.7 0,90.3 73.2,163.6 163.6,163.6 h 594.2 l 276.7,495.3 c 28.9,51.8 83.6,83.9 142.9,83.9 h 1341.4 c 90.4,0 163.7,-73.3 163.7,-163.7 0,-90.4 -73.3,-163.7 -163.7,-163.7 h -1245.4 l -276.7,-495.3 c -28.9,-51.7 -83.6,-83.8 -142.9,-83.8"
         style="fill:#371a45;fill-opacity:1;fill-rule:nonzero;stroke:none"
         transform="matrix(0.13333333,0,0,-0.13333333,0,5333.3333)" />
      <path
         id="path18"
         d="m 17260.7,15114.8 c -246.8,0 -447.5,-200.8 -447.5,-447.5 0,-246.7 200.7,-447.5 447.5,-447.5 246.7,0 447.4,200.8 447.4,447.5 0,246.7 -200.7,447.5 -447.4,447.5 m 0,-1222.3 c -427.3,0 -774.8,347.6 -774.8,774.8 0,427.2 347.5,774.8 774.8,774.8 427.2,0 774.7,-347.6 774.7,-774.8 0,-427.2 -347.5,-774.8 -774.7,-774.8"
         style="fill:#371a45;fill-opacity:1;fill-rule:nonzero;stroke:none"
         transform="matrix(0.13333333,0,0,-0.13333333,0,5333.3333)" />
      <path
         id="path19"
         d="m 11241.6,18179 c -4.4,0 -8.8,0.2 -13.2,0.5 -90.1,7.2 -157.3,86.1 -150.1,176.2 19.4,244.5 140.3,1476.1 609.4,1708.7 519.1,257.2 1472,597.4 3741,576 19,-0.2 37.7,-3.7 55.5,-10.2 508.4,-188.7 594.2,-1132.1 602.3,-1239.1 6.9,-90.1 -60.6,-168.7 -150.8,-175.6 -90,-7.1 -168.7,60.7 -175.5,150.8 -20.5,264.3 -136.6,829.2 -367.3,947.1 -2427.4,17.9 -3279.4,-403.3 -3559.9,-542.3 -222.8,-110.4 -387.4,-925.4 -428.5,-1441.4 -6.8,-85.7 -78.4,-150.7 -162.9,-150.7"
         style="fill:#371a45;fill-opacity:1;fill-rule:nonzero;stroke:none"
         transform="matrix(0.13333333,0,0,-0.13333333,0,5333.3333)" />
      <path
         id="path20"
         d="m 27945.9,4698.9 c 177.2,-56.5 995,-277 1960,98.2 1083.5,421.4 1128.3,2169.2 975.1,3561.2 l -0.2,2.4 c -6.9,72.6 -700.6,7280.8 -1856.8,9361.9 -1045.9,1882.6 -4414.1,1554.8 -4872.7,1500.6 -185.9,-178.2 -869.1,-807.2 -1309.6,-871.3 -450.5,-65.4 -2741.4,-107.6 -2838.8,-109.3 -1.9,0 -3.9,0 -5.9,0 -97.3,1.7 -2388.2,43.9 -2838.6,109.3 -440.6,64 -1123.8,693.1 -1309.7,871.3 -458.3,54.1 -3826.8,382.2 -4872.7,-1500.6 C 9819.64,15641.3 9126.13,8433.3 9119.25,8360.7 8965.73,6966.3 9010.5,5218.5 10094.2,4797.1 c 964.4,-375.1 1781.9,-154.9 1960,-98.1 212.5,244.4 1549.8,1793.5 2134.2,2728.6 682.6,1092.2 2237.7,1235.5 2303.5,1241.1 4.6,0.4 9.2,0.5 13.8,0.5 h 6988.6 c 4.6,0 9.2,-0.1 13.8,-0.5 65.8,-5.6 1620.9,-148.9 2303.5,-1241.1 584.4,-935.1 1921.8,-2484.2 2134.3,-2728.7 M 11235.2,4253.6 c -358.3,0 -791.9,56.5 -1259.68,238.5 -1010.96,393.1 -1419.63,1742.4 -1181.86,3902 28.06,296.6 706.89,7346.7 1896.14,9487.5 1227,2208.5 5092.8,1682.5 5256.7,1659.1 34.6,-4.9 66.7,-20.8 91.6,-45.3 299.8,-294.9 881.8,-778.1 1167.3,-819.6 423.2,-61.4 2698.3,-104.1 2794.6,-105.9 96.2,1.8 2371.4,44.5 2794.6,105.9 285.5,41.5 867.5,524.7 1167.3,819.6 24.9,24.5 57,40.4 91.6,45.3 164,23.3 4029.7,549.3 5256.7,-1659.1 1187.6,-2137.7 1866.2,-9171.1 1896.3,-9488.7 237.4,-2158.9 -171.3,-3507.8 -1182,-3900.8 -1209.9,-470.6 -2190.9,-102.3 -2232.1,-86.4 -24.7,9.5 -46.7,24.8 -64.1,44.7 -62.9,71.8 -1547.6,1769 -2194.3,2803.7 -575.2,920.4 -1944,1077.3 -2047.5,1087.8 h -6973 c -102.5,-10.4 -1472.1,-167 -2047.6,-1087.8 -646.6,-1034.7 -2131.3,-2731.9 -2194.2,-2803.7 -17.4,-19.9 -39.4,-35.2 -64.1,-44.7 -25.2,-9.8 -404.1,-152.1 -972.4,-152.1"
         style="fill:#371a45;fill-opacity:1;fill-rule:nonzero;stroke:none"
         transform="matrix(0.13333333,0,0,-0.13333333,0,5333.3333)" />
      <path
         id="path21"
         d="m 27851.2,4394.6 c -26.9,0 -54.1,6.7 -79.3,20.6 -79,43.9 -107.5,143.5 -63.6,222.5 7.9,14.4 793.2,1459.1 361.4,2781.7 -443.2,1357.2 -2876.9,3854.1 -2901.4,3879.2 -63.3,64.6 -62.1,168.2 2.4,231.4 64.6,63.2 168.2,62.2 231.5,-2.5 102.3,-104.5 2511.9,-2577.3 2978.6,-4006.5 476.8,-1460.3 -350.9,-2978.2 -386.4,-3042.1 -29.9,-53.9 -85.7,-84.3 -143.2,-84.3"
         style="fill:#371a45;fill-opacity:1;fill-rule:nonzero;stroke:none"
         transform="matrix(0.13333333,0,0,-0.13333333,0,5333.3333)" />
      <path
         id="path22"
         d="m 22739.3,15114.8 c -246.7,0 -447.4,-200.8 -447.4,-447.5 0,-246.7 200.7,-447.5 447.4,-447.5 246.8,0 447.5,200.8 447.5,447.5 0,246.7 -200.7,447.5 -447.5,447.5 m 0,-1222.3 c -427.2,0 -774.7,347.6 -774.7,774.8 0,427.2 347.5,774.8 774.7,774.8 427.3,0 774.8,-347.6 774.8,-774.8 0,-427.2 -347.5,-774.8 -774.8,-774.8"
         style="fill:#371a45;fill-opacity:1;fill-rule:nonzero;stroke:none"
         transform="matrix(0.13333333,0,0,-0.13333333,0,5333.3333)" />
      <path
         id="path23"
         d="m 27107.9,15566.4 c -377.8,0 -693.4,266.3 -769.3,621.4 172.9,-237.9 453.3,-392.9 769.3,-392.9 315.9,0 596.3,155 769.2,392.9 -75.9,-355.1 -391.5,-621.4 -769.2,-621.4"
         style="fill:#c3bac7;fill-opacity:1;fill-rule:nonzero;stroke:none"
         transform="matrix(0.13333333,0,0,-0.13333333,0,5333.3333)" />
      <path
         id="path24"
         d="m 25509.2,14074.2 c -388.2,0 -712.7,272.3 -793,636.3 177.2,-246.8 466.6,-407.8 793,-407.8 326.3,0 615.7,161 793,407.8 -80.4,-364 -404.9,-636.3 -793,-636.3"
         style="fill:#c3bac7;fill-opacity:1;fill-rule:nonzero;stroke:none"
         transform="matrix(0.13333333,0,0,-0.13333333,0,5333.3333)" />
      <path
         id="path25"
         d="m 28584.7,14095.4 c -379.5,0 -696.5,267.3 -773.2,623.9 173.6,-239.4 455.5,-395.4 773.2,-395.4 317.7,0 599.6,156 773.2,395.4 -76.6,-356.6 -393.7,-623.9 -773.2,-623.9"
         style="fill:#c3bac7;fill-opacity:1;fill-rule:nonzero;stroke:none"
         transform="matrix(0.13333333,0,0,-0.13333333,0,5333.3333)" />
      <path
         id="path26"
         d="m 27107.9,12568.8 c -377.8,0 -693.4,266.3 -769.3,621.4 172.9,-237.9 453.3,-392.9 769.3,-392.9 315.9,0 596.3,155 769.2,392.9 -75.9,-355.1 -391.5,-621.4 -769.2,-621.4"
         style="fill:#c3bac7;fill-opacity:1;fill-rule:nonzero;stroke:none"
         transform="matrix(0.13333333,0,0,-0.13333333,0,5333.3333)" />
      <path
         id="path27"
         d="m 27894.5,16745.2 c 0,-434.5 -352.2,-786.6 -786.6,-786.6 -434.5,0 -786.7,352.1 -786.7,786.6 0,434.4 352.2,786.6 786.7,786.6 434.4,0 786.6,-352.2 786.6,-786.6"
         style="fill:#16db12;fill-opacity:1;fill-rule:nonzero;stroke:none"
         transform="matrix(0.13333333,0,0,-0.13333333,0,5333.3333)" />
      <path
         id="path28"
         d="m 26321.2,15278.4 c 0,-448.4 -363.5,-812 -812,-812 -448.5,0 -812.1,363.6 -812.1,812 0,448.5 363.6,812.1 812.1,812.1 448.5,0 812,-363.6 812,-812.1"
         style="fill:#f5c202;fill-opacity:1;fill-rule:nonzero;stroke:none"
         transform="matrix(0.13333333,0,0,-0.13333333,0,5333.3333)" />
      <path
         id="path29"
         d="m 29375.6,15278.4 c 0,-436.7 -354.1,-790.8 -790.9,-790.8 -436.8,0 -790.9,354.1 -790.9,790.8 0,436.8 354.1,790.9 790.9,790.9 436.8,0 790.9,-354.1 790.9,-790.9"
         style="fill:#f80440;fill-opacity:1;fill-rule:nonzero;stroke:none"
         transform="matrix(0.13333333,0,0,-0.13333333,0,5333.3333)" />
      <path
         id="path30"
         d="m 27894.5,13747.6 c 0,-434.5 -352.2,-786.7 -786.6,-786.7 -434.5,0 -786.7,352.2 -786.7,786.7 0,434.4 352.2,786.6 786.7,786.6 434.4,0 786.6,-352.2 786.6,-786.6"
         style="fill:#6e6cff;fill-opacity:1;fill-rule:nonzero;stroke:none"
         transform="matrix(0.13333333,0,0,-0.13333333,0,5333.3333)" />
      <path
         id="path31"
         d="m 28758.4,18179.1 c -84.4,0 -156.1,64.9 -162.9,150.5 -49.3,615.5 -227.1,1341.6 -428.6,1441.5 -280.4,139 -1130.3,560.1 -3559.8,542.3 -230.7,-117.9 -346.8,-682.8 -367.3,-947.2 -6.9,-90 -85.3,-157 -175.6,-150.6 -90.1,6.9 -157.6,85.4 -150.7,175.5 8.1,107 93.9,1050.4 602.3,1239.1 17.8,6.5 36.5,10 55.5,10.2 2269,20.4 3221.9,-318.8 3741,-576 469.2,-232.6 590,-1464.2 609.4,-1708.7 7.2,-90.1 -60,-168.9 -150.1,-176.2 -4.4,-0.3 -8.8,-0.4 -13.2,-0.4"
         style="fill:#371a45;fill-opacity:1;fill-rule:nonzero;stroke:none"
         transform="matrix(0.13333333,0,0,-0.13333333,0,5333.3333)" />
      <path
         id="path32"
         d="m 27107.9,17368.1 c -343.5,0 -623,-279.4 -623,-622.9 0,-343.5 279.5,-623 623,-623 343.5,0 622.9,279.5 622.9,623 0,343.5 -279.4,622.9 -622.9,622.9 m 0,-1573.2 c -524,0 -950.3,426.3 -950.3,950.3 0,524 426.3,950.3 950.3,950.3 523.9,0 950.2,-426.3 950.2,-950.3 0,-524 -426.3,-950.3 -950.2,-950.3"
         style="fill:#371a45;fill-opacity:1;fill-rule:nonzero;stroke:none"
         transform="matrix(0.13333333,0,0,-0.13333333,0,5333.3333)" />
      <path
         id="path33"
         d="m 25509.2,15926.9 c -357.6,0 -648.5,-290.9 -648.5,-648.5 0,-357.5 290.9,-648.4 648.5,-648.4 357.5,0 648.4,290.9 648.4,648.4 0,357.6 -290.9,648.5 -648.4,648.5 m 0,-1624.2 c -538.1,0 -975.8,437.7 -975.8,975.7 0,538.1 437.7,975.8 975.8,975.8 538,0 975.7,-437.7 975.7,-975.8 0,-538 -437.7,-975.7 -975.7,-975.7"
         style="fill:#371a45;fill-opacity:1;fill-rule:nonzero;stroke:none"
         transform="matrix(0.13333333,0,0,-0.13333333,0,5333.3333)" />
      <path
         id="path34"
         d="m 28584.7,15905.7 c -345.8,0 -627.2,-281.4 -627.2,-627.3 0,-345.8 281.4,-627.2 627.2,-627.2 345.9,0 627.3,281.4 627.3,627.2 0,345.9 -281.4,627.3 -627.3,627.3 m 0,-1581.8 c -526.3,0 -954.5,428.2 -954.5,954.5 0,526.4 428.2,954.6 954.5,954.6 526.4,0 954.6,-428.2 954.6,-954.6 0,-526.3 -428.2,-954.5 -954.6,-954.5"
         style="fill:#371a45;fill-opacity:1;fill-rule:nonzero;stroke:none"
         transform="matrix(0.13333333,0,0,-0.13333333,0,5333.3333)" />
      <path
         id="path35"
         d="m 27107.9,14370.5 c -343.5,0 -623,-279.4 -623,-622.9 0,-343.5 279.5,-623 623,-623 343.5,0 622.9,279.5 622.9,623 0,343.5 -279.4,622.9 -622.9,622.9 m 0,-1573.2 c -524,0 -950.3,426.3 -950.3,950.3 0,523.9 426.3,950.3 950.3,950.3 523.9,0 950.2,-426.4 950.2,-950.3 0,-524 -426.3,-950.3 -950.2,-950.3"
         style="fill:#371a45;fill-opacity:1;fill-rule:nonzero;stroke:none"
         transform="matrix(0.13333333,0,0,-0.13333333,0,5333.3333)" />
      <path
         id="path36"
         d="m 13174.9,15411.4 c -279.5,0 -506.9,-227.3 -506.9,-506.8 0,-279.5 227.4,-506.9 506.9,-506.9 279.5,0 506.9,227.4 506.9,506.9 0,279.5 -227.4,506.8 -506.9,506.8 z m 0,-1341 c -459.9,0 -834.1,374.2 -834.1,834.2 0,460 374.2,834.2 834.1,834.2 460,0 834.2,-374.2 834.2,-834.2 0,-460 -374.2,-834.2 -834.2,-834.2"
         style="fill:#371a45;fill-opacity:1;fill-rule:nonzero;stroke:none"
         transform="matrix(0.13333333,0,0,-0.13333333,0,5333.3333)" />
      <path
         id="path37"
         d="m 23647.7,11700.9 c -279.6,0 -506.9,-227.4 -506.9,-506.9 0,-279.5 227.3,-506.8 506.9,-506.8 279.5,0 506.8,227.3 506.8,506.8 0,279.5 -227.3,506.9 -506.8,506.9 z m 0,-1341.1 c -460,0 -834.2,374.2 -834.2,834.2 0,460 374.2,834.2 834.2,834.2 459.9,0 834.1,-374.2 834.1,-834.2 0,-460 -374.2,-834.2 -834.1,-834.2"
         style="fill:#371a45;fill-opacity:1;fill-rule:nonzero;stroke:none"
         transform="matrix(0.13333333,0,0,-0.13333333,0,5333.3333)" />
      <path
         id="path38"
         d="m 17584.1,11820.8 c -137.5,0 -267.9,35 -389.6,104.8 -412.9,236.9 -564,798.7 -570.3,822.5 -22.9,87.5 29.4,176.9 116.9,199.8 87.4,23.1 176.6,-29.3 199.7,-116.6 1.2,-4.5 123.9,-454.7 417.5,-622.3 114.8,-65.6 240.5,-77.7 384.4,-37.5 86.9,24.6 177.3,-26.4 201.7,-113.4 24.4,-87 -26.4,-177.4 -113.4,-201.7 -84.5,-23.7 -166.9,-35.6 -246.9,-35.6"
         style="fill:#371a45;fill-opacity:1;fill-rule:nonzero;stroke:none"
         transform="matrix(0.13333333,0,0,-0.13333333,0,5333.3333)" />
      <path
         id="path39"
         d="m 16959.4,9493.5 c -1.6,0 -3.3,0 -5,0.1 -90.3,2.6 -161.4,78.1 -158.6,168.4 25.3,847.6 985.2,1164.9 1026.1,1178 86,27.5 178.2,-19.9 205.7,-106 27.6,-86 -19.7,-178 -105.6,-205.7 -9.4,-3 -780.7,-261.5 -799.1,-876 -2.6,-88.7 -75.4,-158.8 -163.5,-158.8"
         style="fill:#371a45;fill-opacity:1;fill-rule:nonzero;stroke:none"
         transform="matrix(0.13333333,0,0,-0.13333333,0,5333.3333)" />
      <path
         id="path40"
         d="m 15594.3,9562.1 c -80.7,0 -151,59.7 -162,141.9 -4.3,31.3 -107.9,725.8 -723.7,908.6 -86.6,25.7 -136,116.8 -110.3,203.4 25.7,86.7 116.9,136.2 203.5,110.3 822.3,-244 949.9,-1141 954.9,-1179.1 11.9,-89.6 -51.2,-171.9 -140.8,-183.7 -7.3,-0.9 -14.5,-1.4 -21.6,-1.4"
         style="fill:#371a45;fill-opacity:1;fill-rule:nonzero;stroke:none"
         transform="matrix(0.13333333,0,0,-0.13333333,0,5333.3333)" />
      <path
         id="path41"
         d="m 14842,11700.9 c -72.2,0 -138.4,48.2 -158,121.3 -23.4,87.2 28.3,176.8 115.4,200.4 10.9,2.9 763.9,215.7 969,819.6 29.1,85.5 122,131.2 207.6,102.3 85.6,-29.1 131.4,-122 102.3,-207.6 -262.4,-772.4 -1155.9,-1020.2 -1193.8,-1030.4 -14.2,-3.8 -28.5,-5.6 -42.5,-5.6"
         style="fill:#371a45;fill-opacity:1;fill-rule:nonzero;stroke:none"
         transform="matrix(0.13333333,0,0,-0.13333333,0,5333.3333)" />
      <path
         id="path42"
         d="m 16352.3,9705.2 c -218.1,0 -425.5,47.2 -612.3,131.9 -51.2,229.3 -240.1,828.2 -846.4,1058.2 -19.7,96.6 -30.1,196.4 -30.1,298.7 0,13 0.2,25.9 0.5,38.8 202.1,-4 630.2,-20.1 800.5,-84.9 226.5,-86.3 312.8,-830.5 625.5,-852 4.7,-0.4 9.3,-0.5 13.8,-0.5 300,0 334.5,691.7 547,755.4 124.9,37.4 490.6,45.3 776.6,45.3 78.3,0 150.7,-0.6 210.5,-1.3 -6,-90.3 -20,-178.4 -41.4,-263.5 -151.4,-54.2 -897.4,-355.4 -991.5,-1055.7 -142.8,-45.7 -294.9,-70.4 -452.7,-70.4"
         style="fill:#5c4967;fill-opacity:1;fill-rule:nonzero;stroke:none"
         transform="matrix(0.13333333,0,0,-0.13333333,0,5333.3333)" />
      <path
         id="path43"
         d="m 16357.3,9656.1 c -22.2,0 -44.5,0.3 -67.3,1 -203.7,6.2 -380.5,39.9 -533.7,93.4 -1.6,11 -6.3,41.8 -16.3,86.6 186.8,-84.7 394.2,-131.9 612.3,-131.9 157.8,0 309.9,24.7 452.7,70.4 -3,-22.6 -5.4,-45.5 -7,-68.9 -132.2,-32.4 -278.7,-50.6 -440.7,-50.6 m 1439.2,1175.2 c 21.4,85.1 35.4,173.2 41.4,263.5 99.1,-1.2 163.6,-2.8 163.6,-2.8 0,0 -15,-104.7 -65.3,-257.5 -20.1,8.7 -42,13.3 -64.4,13.3 -16.5,0 -33.4,-2.5 -49.9,-7.8 -3.2,-1.1 -12,-3.9 -25.4,-8.7 m -2902.9,64 c -29.6,11.3 -60.2,21.6 -91.8,31 -1.4,0.4 -2.8,0.8 -4.1,1.2 -31.7,144.8 -39.9,254.5 -41.9,292.3 4.8,5 9.3,9.7 13.7,14.3 17.6,-0.1 50.8,-0.4 94.5,-1.3 -0.3,-12.9 -0.5,-25.8 -0.5,-38.8 0,-102.3 10.4,-202.1 30.1,-298.7"
         style="fill:#371a45;fill-opacity:1;fill-rule:nonzero;stroke:none"
         transform="matrix(0.13333333,0,0,-0.13333333,0,5333.3333)" />
      <path
         id="path44"
         d="m 14755.8,11219.8 c -0.5,9.4 -0.6,14.3 -0.6,14.3 0,0 5,0 14.3,0 -4.4,-4.6 -8.9,-9.3 -13.7,-14.3"
         style="fill:#371a45;fill-opacity:1;fill-rule:nonzero;stroke:none"
         transform="matrix(0.13333333,0,0,-0.13333333,0,5333.3333)" />
      <path
         id="path45"
         d="m 17212.3,9979.4 c 90.9,166.8 237,292.4 373,381 -100.5,-148.2 -227,-277.4 -373,-381"
         style="fill:#5c4967;fill-opacity:1;fill-rule:nonzero;stroke:none"
         transform="matrix(0.13333333,0,0,-0.13333333,0,5333.3333)" />
      <path
         id="path46"
         d="m 17154.3,9842.4 c 15,48.4 34.7,94.1 58,137 146,103.6 272.5,232.8 373,381 68.4,44.5 134.2,79.7 189.2,106.1 -127.8,-226.1 -323.7,-464.8 -620.2,-624.1"
         style="fill:#371a45;fill-opacity:1;fill-rule:nonzero;stroke:none"
         transform="matrix(0.13333333,0,0,-0.13333333,0,5333.3333)" />
      <path
         id="path47"
         d="m 15238.3,10207.3 c -41.8,47.2 -80.6,97 -116.3,149.2 44.8,-47.8 83.2,-98.2 116.3,-149.2"
         style="fill:#5c4967;fill-opacity:1;fill-rule:nonzero;stroke:none"
         transform="matrix(0.13333333,0,0,-0.13333333,0,5333.3333)" />
      <path
         id="path48"
         d="m 15360.7,9965 c -199.3,156.1 -333.1,352.7 -422.9,544.2 70.8,-44.6 131.8,-96.8 184.2,-152.7 35.7,-52.2 74.5,-102 116.3,-149.2 54,-83 93.6,-167.1 122.4,-242.3"
         style="fill:#371a45;fill-opacity:1;fill-rule:nonzero;stroke:none"
         transform="matrix(0.13333333,0,0,-0.13333333,0,5333.3333)" />
      <path
         id="path49"
         d="m 16798,9706.7 c 1.6,23.4 4,46.3 7,68.9 94.1,700.3 840.1,1001.5 991.5,1055.7 13.4,4.8 22.2,7.6 25.4,8.7 16.5,5.3 33.4,7.8 49.9,7.8 22.4,0 44.3,-4.6 64.4,-13.3 -34.7,-105.8 -86.4,-234.7 -161.7,-368 -55,-26.4 -120.8,-61.6 -189.2,-106.1 -136,-88.6 -282.1,-214.2 -373,-381 -23.3,-42.9 -43,-88.6 -58,-137 -105.5,-56.7 -223.7,-103.3 -356.3,-135.7"
         style="fill:#371a45;fill-opacity:1;fill-rule:nonzero;stroke:none"
         transform="matrix(0.13333333,0,0,-0.13333333,0,5333.3333)" />
      <path
         id="path50"
         d="m 15756.3,9750.5 c -154.5,53.9 -285.1,128 -395.6,214.5 -28.8,75.2 -68.4,159.3 -122.4,242.3 -33.1,51 -71.5,101.4 -116.3,149.2 -52.4,55.9 -113.4,108.1 -184.2,152.7 -70.2,149.8 -113.5,296.5 -140.1,418.3 1.3,-0.4 2.7,-0.8 4.1,-1.2 31.6,-9.4 62.2,-19.7 91.8,-31 606.3,-230 795.2,-828.9 846.4,-1058.2 10,-44.8 14.7,-75.6 16.3,-86.6"
         style="fill:#371a45;fill-opacity:1;fill-rule:nonzero;stroke:none"
         transform="matrix(0.13333333,0,0,-0.13333333,0,5333.3333)" />
      <path
         id="path51"
         d="m 23647.7,9541.6 c -464.5,0 -797.2,149.7 -1035.6,364.6 283.4,-228.1 643.5,-364.6 1035.6,-364.6 v 0 0 m 3.1,0 c 568.8,1 1070.2,289.5 1366.7,727.9 -226.3,-381.5 -633.5,-727 -1366.7,-727.9"
         style="fill:#513b5d;fill-opacity:1;fill-rule:nonzero;stroke:none"
         transform="matrix(0.13333333,0,0,-0.13333333,0,5333.3333)" />
      <path
         id="path52"
         d="m 23647.7,9541.6 c -392.1,0 -752.2,136.5 -1035.6,364.6 -604.1,544.5 -602,1506.9 -602,1506.9 h 438.1 c 0,0 155.7,-1225.1 1199.5,-1225.1 1043.7,0 1108.4,1078.5 1108.4,1078.5 h 443.3 c 21.5,-22.4 53.7,-55.9 95,-99.3 -15.3,-174.7 -71.3,-551.1 -276.9,-897.7 -296.5,-438.4 -797.9,-726.9 -1366.7,-727.9 -1,0 -2.1,0 -3.1,0 v 0"
         style="fill:#5c4967;fill-opacity:1;fill-rule:nonzero;stroke:none"
         transform="matrix(0.13333333,0,0,-0.13333333,0,5333.3333)" />
      <path
         id="path53"
         d="m 25294.4,11167.2 c -41.3,43.4 -73.5,76.9 -95,99.3 h 100.7 c 0,0 -0.2,-36.7 -5.7,-99.3"
         style="fill:#371a45;fill-opacity:1;fill-rule:nonzero;stroke:none"
         transform="matrix(0.13333333,0,0,-0.13333333,0,5333.3333)" />
      <path
         id="path54"
         d="M 22166.4,16993.2 H 18902 c -1.6,19.5 -3.2,30.4 -3.4,31.2 l -71,521.1 c 618.2,-7.7 1172.4,-13.7 1172.4,-13.7 0,0 2249.5,24.2 2739.4,38.4 267.8,7.8 997.3,577 997.3,577 -23.6,-86.3 -55.7,-169 -93.7,-247.7 -271.2,-561.5 -853,-906.3 -1476.6,-906.3"
         style="fill:#c3bac7;fill-opacity:1;fill-rule:nonzero;stroke:none"
         transform="matrix(0.13333333,0,0,-0.13333333,0,5333.3333)" />
      <path
         id="path55"
         d="m 11670.6,18891.3 c 46.1,215.1 131,567.6 204.8,639.4 107.9,104.8 524.9,306.1 1344.5,421.2 0,0 266.1,-158.2 445.8,-158.2 175,0 1440.6,68.8 1653.2,68.8 5.7,0 10.7,-0.1 14.9,-0.2 97.2,-2.4 175.4,-159.7 221.3,-280.5 -199.1,15.7 -462.5,29.9 -765.5,29.9 -906.7,0 -2167.5,-127.2 -3119,-720.4"
         style="fill:#5c4967;fill-opacity:1;fill-rule:nonzero;stroke:none"
         transform="matrix(0.13333333,0,0,-0.13333333,0,5333.3333)" />
      <path
         id="path56"
         d="m 11636.3,18722.4 c 0,0 13,69.9 34.3,168.9 951.5,593.2 2212.3,720.4 3119,720.4 303,0 566.4,-14.2 765.5,-29.9 28.7,-75.7 44.7,-137.1 44.7,-137.1 0,0 -51.6,1.1 -143.6,1.1 -587,0 -2820.8,-45.9 -3819.9,-723.4"
         style="fill:#371a45;fill-opacity:1;fill-rule:nonzero;stroke:none"
         transform="matrix(0.13333333,0,0,-0.13333333,0,5333.3333)" />
      <path
         id="path57"
         d="m 28370.7,18865.1 c -956.2,615.7 -2240.6,746.6 -3160.4,746.6 -208.1,0 -397.4,-6.7 -560.1,-16 -0.2,66.4 -2.4,149.1 -9,245 19.2,13.2 39.5,21.1 60.7,21.6 4.2,0.1 9.2,0.2 14.9,0.2 212.6,0 1478.2,-68.8 1653.2,-68.8 179.7,0 445.7,158.2 445.7,158.2 819.7,-115.1 1236.7,-316.4 1344.5,-421.2 77,-74.8 165.9,-454.2 210.5,-665.6"
         style="fill:#5c4967;fill-opacity:1;fill-rule:nonzero;stroke:none"
         transform="matrix(0.13333333,0,0,-0.13333333,0,5333.3333)" />
      <path
         id="path58"
         d="m 28399.4,18722.4 c -964.5,654 -3079.5,719.5 -3753,723.2 1.8,30.5 3.9,81.7 3.8,150.1 162.7,9.3 352,16 560.1,16 919.8,0 2204.2,-130.9 3160.4,-746.6 17.9,-84.9 28.7,-142.7 28.7,-142.7"
         style="fill:#371a45;fill-opacity:1;fill-rule:nonzero;stroke:none"
         transform="matrix(0.13333333,0,0,-0.13333333,0,5333.3333)" />
      <path
         id="path59"
         d="m 25478.7,15305.4 c -190.6,0 -345.1,96.6 -345.1,215.7 0,119.1 154.5,215.7 345.1,215.7 190.6,0 345.1,-96.6 345.1,-215.7 0,-119.1 -154.5,-215.7 -345.1,-215.7"
         style="fill:#f9da67;fill-opacity:1;fill-rule:nonzero;stroke:none"
         transform="matrix(0.13333333,0,0,-0.13333333,0,5333.3333)" />
      <path
         id="path60"
         d="m 22700.3,14742.8 c -98.4,0 -178.3,49.9 -178.3,111.4 0,61.6 79.9,111.5 178.3,111.5 98.5,0 178.3,-49.9 178.3,-111.5 0,-61.5 -79.8,-111.4 -178.3,-111.4"
         style="fill:#a79eac;fill-opacity:1;fill-rule:nonzero;stroke:none"
         transform="matrix(0.13333333,0,0,-0.13333333,0,5333.3333)" />
      <path
         id="path61"
         d="m 17260.7,14742.8 c -98.5,0 -178.4,49.9 -178.4,111.4 0,61.6 79.9,111.5 178.4,111.5 98.4,0 178.3,-49.9 178.3,-111.5 0,-61.5 -79.9,-111.4 -178.3,-111.4"
         style="fill:#a79eac;fill-opacity:1;fill-rule:nonzero;stroke:none"
         transform="matrix(0.13333333,0,0,-0.13333333,0,5333.3333)" />
      <path
         id="path62"
         d="m 27067.7,16707.4 c -190.6,0 -345.2,96.6 -345.2,215.7 0,119.2 154.6,215.7 345.2,215.7 190.6,0 345.1,-96.5 345.1,-215.7 0,-119.1 -154.5,-215.7 -345.1,-215.7"
         style="fill:#73e971;fill-opacity:1;fill-rule:nonzero;stroke:none"
         transform="matrix(0.13333333,0,0,-0.13333333,0,5333.3333)" />
      <path
         id="path63"
         d="m 27067.7,13788.3 c -190.6,0 -345.2,96.6 -345.2,215.7 0,119.2 154.6,215.7 345.2,215.7 190.6,0 345.1,-96.5 345.1,-215.7 0,-119.1 -154.5,-215.7 -345.1,-215.7"
         style="fill:#a8a7ff;fill-opacity:1;fill-rule:nonzero;stroke:none"
         transform="matrix(0.13333333,0,0,-0.13333333,0,5333.3333)" />
      <path
         id="path64"
         d="m 28520,15305.4 c -190.6,0 -345.1,96.6 -345.1,215.7 0,119.1 154.5,215.7 345.1,215.7 190.6,0 345.1,-96.6 345.1,-215.7 0,-119.1 -154.5,-215.7 -345.1,-215.7"
         style="fill:#fb688c;fill-opacity:1;fill-rule:nonzero;stroke:none"
         transform="matrix(0.13333333,0,0,-0.13333333,0,5333.3333)" />
      <path
         id="path65"
         d="m 22257.6,11827.3 c 0,0 39.9,99.3 126.3,234.6 76.7,13.6 135,80.6 135,161.2 0,7.8 -0.6,15.4 -1.6,22.9 218.5,266.8 584.3,562.6 1132.1,562.6 1.9,0 3.8,0 5.7,0 1002,-3.8 1413.8,-875.1 1413.8,-875.1 0,0 -481.8,504.9 -1413.8,504.9 -932.1,0 -1397.5,-611.1 -1397.5,-611.1"
         style="fill:#a79eac;fill-opacity:1;fill-rule:nonzero;stroke:none"
         transform="matrix(0.13333333,0,0,-0.13333333,0,5333.3333)" />
      <path
         id="path66"
         d="m 22383.9,12061.9 c 36.2,56.6 80.4,119.5 133.4,184.1 1,-7.5 1.6,-15.1 1.6,-22.9 0,-80.6 -58.3,-147.6 -135,-161.2"
         style="fill:#87768f;fill-opacity:1;fill-rule:nonzero;stroke:none"
         transform="matrix(0.13333333,0,0,-0.13333333,0,5333.3333)" />
      <path
         id="path67"
         d="m 14650.7,15504.9 c 0,0 -32.2,39.3 -103.1,95.6 -100.2,197.2 -241.7,370 -413,506.9 366.6,-268.1 516.1,-602.5 516.1,-602.5 m -2464.3,578.8 c 188.7,194.4 456.1,340.5 834.7,351.9 -316.2,-31.4 -604.2,-158.5 -834.7,-351.9"
         style="fill:#ffffff;fill-opacity:1;fill-rule:nonzero;stroke:none"
         transform="matrix(0.13333333,0,0,-0.13333333,0,5333.3333)" />
      <path
         id="path68"
         d="m 11738.8,15019.6 c 0,0 40.3,644.5 447.6,1064.1 230.5,193.4 518.5,320.5 834.7,351.9 0.3,0 0.5,0 0.8,0 21.7,0.7 43,1 64.2,1 460.3,0 803.1,-149.8 1048.5,-329.2 171.3,-136.9 312.8,-309.7 413,-506.9 -178.3,141.3 -601.3,389.7 -1372.1,389.7 -1077.2,0 -1436.7,-970.6 -1436.7,-970.6"
         style="fill:#a79eac;fill-opacity:1;fill-rule:nonzero;stroke:none"
         transform="matrix(0.13333333,0,0,-0.13333333,0,5333.3333)" />
      <path
         id="path69"
         d="m 23647.7,12682.8 c -821,0 -1488.9,-667.9 -1488.9,-1488.8 0,-820.9 667.9,-1488.8 1488.9,-1488.8 820.9,0 1488.8,667.9 1488.8,1488.8 0,820.9 -667.9,1488.8 -1488.8,1488.8 z m 0,-3304.9 c -1001.5,0 -1816.1,814.7 -1816.1,1816.1 0,1001.4 814.6,1816.2 1816.1,1816.2 1001.4,0 1816.1,-814.8 1816.1,-1816.2 0,-1001.4 -814.7,-1816.1 -1816.1,-1816.1"
         style="fill:#371a45;fill-opacity:1;fill-rule:nonzero;stroke:none"
         transform="matrix(0.13333333,0,0,-0.13333333,0,5333.3333)" />
      <path
         id="path70"
         d="m 13172,13365.9 c -616.1,0.9 -985.6,272.9 -1206.9,588 281.1,-357.3 717.2,-587 1206.9,-588 m 5.9,0 c 410.2,0.8 782.6,162.1 1058,424.4 -227.8,-241.3 -563.5,-423.6 -1058,-424.4 m 1535.2,1575.4 c -0.2,8.2 -0.4,16.3 -0.7,24.4 h 2.4 c 0,0 -0.4,-8.6 -1.7,-24.4"
         style="fill:#c3bac7;fill-opacity:1;fill-rule:nonzero;stroke:none"
         transform="matrix(0.13333333,0,0,-0.13333333,0,5333.3333)" />
      <path
         id="path71"
         d="m 13174.9,13365.9 v 0 c -1,0 -1.9,0 -2.9,0 -489.7,1 -925.8,230.7 -1206.9,588 -305.2,434.4 -328.8,950.7 -328.8,950.7 h 469.2 c 0,0 58.1,-1028.2 1089.3,-1028.2 1031.2,0 1035.3,1089.3 1035.3,1089.3 h 482.3 c 0.3,-8.1 0.5,-16.2 0.7,-24.4 -10.3,-127.6 -79,-729.4 -477.2,-1151 -275.4,-262.3 -647.8,-423.6 -1058,-424.4 -1,0 -2,0 -3,0 v 0"
         style="fill:#5c4967;fill-opacity:1;fill-rule:nonzero;stroke:none"
         transform="matrix(0.13333333,0,0,-0.13333333,0,5333.3333)" />
      <path
         id="path72"
         d="m 13174.9,16279.5 c -758.1,0 -1375,-616.7 -1375,-1374.9 0,-758.2 616.9,-1375 1375,-1375 758.2,0 1375,616.8 1375,1375 0,758.2 -616.8,1374.9 -1375,1374.9 z m 0,-3077.2 c -938.6,0 -1702.3,763.6 -1702.3,1702.3 0,938.6 763.7,1702.3 1702.3,1702.3 938.7,0 1702.3,-763.7 1702.3,-1702.3 0,-938.7 -763.6,-1702.3 -1702.3,-1702.3"
         style="fill:#371a45;fill-opacity:1;fill-rule:nonzero;stroke:none"
         transform="matrix(0.13333333,0,0,-0.13333333,0,5333.3333)" />
      <path
         id="path73"
         d="m 16593.1,24267.2 c 0,0 -196.9,1072.1 16.9,1264.2 213.9,192.2 1270.8,57.3 1270.8,57.3 v -177.9 l -1078.5,-1256.4 c 0,0 -208,-11.6 -209.2,112.8"
         style="fill:#ffffff;fill-opacity:1;fill-rule:nonzero;stroke:none"
         transform="matrix(0.13333333,0,0,-0.13333333,0,5333.3333)" />
      <path
         id="path74"
         d="m 23950.7,22029.7 c 0,0 410.3,288.3 363.2,388.3 -47,100 -767.7,1491 -779,1511.7 -11.4,20.7 -164.5,41 -179.9,31.2 -15.5,-9.7 -536.6,-329.1 -536.6,-329.1 l -100.6,-164.1 78.5,-383.1 108.4,-88 c 0,0 328.8,-14.1 570.6,-361.1 241.9,-346.9 327.9,-577 327.9,-577 l 147.5,-28.8"
         style="fill:#ffffff;fill-opacity:1;fill-rule:nonzero;stroke:none"
         transform="matrix(0.13333333,0,0,-0.13333333,0,5333.3333)" />
      <path
         id="path75"
         d="m 21883.8,26264.6 c 0,0 2444.5,1409.2 3149.1,2415.8 0,0 -373.9,1121.6 86.3,1481.1 460.2,359.5 790.9,-100.6 790.9,-100.6 0,0 310,633.7 920.3,733.3 704.6,115.1 2157,-445.8 949.1,-2631.5 -1207.9,-2185.7 -3853.8,-3882.5 -5104.9,-4615.9 l 143.8,-546.4 c 0,0 704.6,-14.4 906,-920.3 201.3,-905.9 186.9,-1524.3 186.9,-1524.3 0,0 517.7,-172.5 560.8,-532 43.1,-359.5 21.6,-596.8 21.6,-596.8 0,0 -481.7,0 -812.5,-337.9 -330.7,-337.9 -424.2,-618.3 -424.2,-618.3 h -1243.8 c 0,0 -445.8,0 -503.3,776.5 0,0 -532.1,-949.1 -2976.6,-661.5 L 18749,17004 c 0,0 158.1,-1006.6 -992.2,-1308.5 -1150.4,-302 -2128.3,-460.2 -2286.4,244.4 -158.2,704.6 704.6,877.2 704.6,877.2 0,0 -589.6,1466.7 -187,2818.4 0,0 -286.7,647.1 -537,722.6 -250.2,75.5 -1317.9,129.4 -1317.9,129.4 0,0 -302,636.3 86.2,916.7 388.3,280.4 1056.9,21.6 1056.9,21.6 0,0 1035.2,2481 2803.9,4105.9 0,0 2379.1,-262.6 3803.7,732.9"
         style="fill:#ffffff;fill-opacity:1;fill-rule:nonzero;stroke:none"
         transform="matrix(0.13333333,0,0,-0.13333333,0,5333.3333)" />
      <path
         id="path76"
         d="m 16047.8,19862.3 c -0.2,0 -0.5,0 -0.8,0 -117.6,229.9 -326.1,572.2 -552.4,640.4 -187.1,56.5 -747.4,99 -1089,120.5 50,76.5 137.6,161 288.3,193.3 27.4,5.8 60,8.4 96.7,8.4 141.1,0 343,-38.5 545.5,-77 202.6,-38.4 405.7,-76.9 549.4,-76.9 86.5,0 151.4,13.9 181.6,50.2 143.8,172.5 366.7,1121.6 949.1,2272 582.4,1150.4 988.6,1452.4 988.6,1452.4 0,0 -323.1,-859.1 -479.7,-1209.7 -156.6,-350.6 -275.2,-683.1 -275.2,-683.1 0,0 -90.5,-0.2 -183.4,-161.8 -92.8,-161.6 -37.7,-269.6 -37.7,-269.6 l 1207.9,41.2 32.3,-224.5 c 0,0 -91.6,-183.4 -140.2,-194.2 -46.3,-10.2 -613,-82.7 -683.6,-106.5 l -55.1,-3.1 -194.2,-116.8 v 0 l -73,-798.1 -59.7,-106.5 c -47.3,-54.2 -103.8,-94.8 -161.1,-125.3 -108.4,-20.4 -283.9,-62.4 -416.6,-137.2 -206.3,-116.3 -401.8,-461.3 -411.9,-482.5 -1.8,-3.9 -11.4,-5.6 -25.8,-5.6"
         style="fill:#d7d1da;fill-opacity:1;fill-rule:nonzero;stroke:none"
         transform="matrix(0.13333333,0,0,-0.13333333,0,5333.3333)" />
      <path
         id="path77"
         d="m 16292.8,15591.3 c -198.4,0 -365.9,29.3 -483.8,101 -101.3,61.7 -162.1,150.9 -191.2,280.7 -6.3,28 -10.7,55.2 -13.3,81.5 126.3,-49.6 330.2,-105.2 609.1,-105.2 110.8,0 233.3,8.8 367.6,30.2 744.2,118.6 1272.6,345.1 1369.7,754.9 97,409.8 -355.9,3095.2 -690.2,3375.7 -334.4,280.4 -676,287.5 -676,287.5 0,0 161.7,7.3 317.4,90 60.2,11.4 99.7,16.1 99.7,16.1 l 61.4,109.2 c 0,0.1 0,0 0,0.1 175.9,201.7 132.7,904.5 132.7,904.5 v 0 c 0,0 221.1,97 242.7,116.8 1,0.9 3.2,1.9 6.6,3.1 l 737.6,41.2 165.3,-136.1 c 0,0 -73.4,-352.8 451.2,-375.5 9.1,-0.4 18.6,-0.8 28.5,-1.1 109.6,-12.2 245.2,-17.2 395.4,-17.2 341.3,0 757.4,26.1 1112.2,54.6 468.4,20.4 852.2,41.1 852.2,41.1 l 85.8,6.7 c 0,0 44,-98.1 77.3,-190.4 -10.1,-146.7 -15.5,-290.7 -13.4,-422.2 4.4,-278.8 36.6,-618.5 83.5,-938.2 -108.1,-122.7 -550.8,-581.5 -1233.9,-711.9 -301.9,-57.6 -617.6,-75.4 -892.3,-75.4 -445,0 -782.9,46.7 -782.9,46.7 0,0 -27.7,-99.1 -29.7,-231.9 -21.1,-7.6 -40.4,-19.8 -56.5,-36.2 -32.8,-33.3 -48.2,-79.9 -41.9,-126.2 l 216.1,-1584.8 c 5.6,-35.6 125.4,-874.8 -881.3,-1139 -497.9,-130.8 -1024.7,-250.3 -1425.6,-250.3"
         style="fill:#d7d1da;fill-opacity:1;fill-rule:nonzero;stroke:none"
         transform="matrix(0.13333333,0,0,-0.13333333,0,5333.3333)" />
      <path
         id="path78"
         d="m 16902.1,20487.6 c 57.3,30.5 113.8,71.1 161.1,125.3 l -61.4,-109.2 c 0,0 -39.5,-4.7 -99.7,-16.1 m 293.8,1029.9 194.2,116.8 55.1,3.1 c -3.4,-1.2 -5.6,-2.2 -6.6,-3.1 -21.6,-19.8 -242.7,-116.8 -242.7,-116.8"
         style="fill:#b7acbc;fill-opacity:1;fill-rule:nonzero;stroke:none"
         transform="matrix(0.13333333,0,0,-0.13333333,0,5333.3333)" />
      <path
         id="path79"
         d="m 22016.9,18621.7 c -12.7,0.7 -311,23.7 -356.4,636.8 -4.9,65.7 -52.3,119.8 -116.4,134.9 -11.4,2.7 -22.9,4 -34.2,4 -13,0 -25.8,-1.7 -38.2,-4.9 -18.3,98.4 -35.4,202 -50.9,307.8 17.1,19.3 25.8,30.3 25.8,30.3 0,0 -59.6,1116.4 -59.6,1191.9 0,28.5 -16.2,82.3 -36.3,138.2 9.2,135 22.4,272.4 37.3,404.4 19.3,15.9 34.4,27.2 43,30.8 41.5,17.2 0,258.8 0,258.8 0,0 -2.3,-0.1 -6.8,-0.2 45.2,330.5 90.9,576.2 90.9,576.2 0,0 177.6,146.8 364.8,146.8 45.9,0 92.3,-8.8 136.9,-30.7 226.4,-111.5 -43.2,-2822.1 226.4,-3199.5 77.1,-107.9 259.7,-146.4 481.4,-146.4 273.3,0 606.1,58.6 873,118 -8.1,-7.9 -16.3,-15.9 -24.3,-24.2 -232.8,-237.8 -357,-451.9 -415.6,-572.9 l -1140.8,-0.1"
         style="fill:#d7d1da;fill-opacity:1;fill-rule:nonzero;stroke:none"
         transform="matrix(0.13333333,0,0,-0.13333333,0,5333.3333)" />
      <path
         id="path80"
         d="m 21420.8,19700.3 c -46.9,319.7 -79.1,659.4 -83.5,938.2 -2.1,131.5 3.3,275.5 13.4,422.2 20.1,-55.9 36.3,-109.7 36.3,-138.2 0,-75.5 59.6,-1191.9 59.6,-1191.9 0,0 -8.7,-11 -25.8,-30.3"
         style="fill:#b7acbc;fill-opacity:1;fill-rule:nonzero;stroke:none"
         transform="matrix(0.13333333,0,0,-0.13333333,0,5333.3333)" />
      <path
         id="path81"
         d="m 23792.9,22374.1 c -201.7,514 -590.3,715.5 -854.7,764.7 l -88.4,335.9 c 103,61 208,124.3 314.3,189.4 203.6,-333.7 731.6,-1200.7 730.5,-1213.7 -0.6,-7.9 -50.6,-42.6 -101.7,-76.3"
         style="fill:#c3bac7;fill-opacity:1;fill-rule:nonzero;stroke:none"
         transform="matrix(0.13333333,0,0,-0.13333333,0,5333.3333)" />
      <path
         id="path82"
         d="m 22684.3,23727.8 c -18.2,11.1 -36.7,24.6 -55.5,41 -191.4,167.2 -614.3,988.9 -614.3,988.9 0,0 315.5,-136 663.3,-136 121.2,0 246.4,16.5 363.5,61.1 453,172.6 2552.4,1653.7 3803.5,3163.6 1030.8,1244.1 987.7,2224.5 940.6,2531.2 48,-43.6 92.5,-93.1 132,-149.2 304.7,-432.3 211.3,-1121.4 -270.2,-1992.6 -1062.1,-1922.1 -3266.6,-3504.3 -4962.9,-4508"
         style="fill:#d7d1da;fill-opacity:1;fill-rule:nonzero;stroke:none"
         transform="matrix(0.13333333,0,0,-0.13333333,0,5333.3333)" />
      <path
         id="path83"
         d="m 16908.9,24472.5 c -1.6,241.4 8.6,639.7 71.4,717.2 51.6,63.7 289.1,77.7 486.9,77.7 9,0 17.8,-0.1 26.6,-0.1 18.4,-5.4 36.7,-10.6 55.2,-15.8 6.4,-3.7 13,-7.4 19.7,-11.2 -235.8,-247.8 -455.9,-506.7 -659.8,-767.8"
         style="fill:#c3bac7;fill-opacity:1;fill-rule:nonzero;stroke:none"
         transform="matrix(0.13333333,0,0,-0.13333333,0,5333.3333)" />
      <path
         id="path84"
         d="m 18998.1,21163.6 c -64.6,0 -122.1,0.7 -170.3,2.3 -88.3,9.8 -159.8,24.2 -208.3,44.2 -404.4,167.2 -221,1137.8 -221,1137.8 0,0 140.2,-496.1 420.6,-593.2 93.4,-32.3 414.8,-43.1 801.8,-43.1 737.4,0 1713,39.2 1803.3,42.9 -12.4,-91.2 -24.8,-188.7 -36.2,-289.4 -73.7,-60.5 -208.8,-186 -277.2,-190.3 -33.9,-2.1 -363.3,-38.4 -775.4,-71.5 -458.4,-19.9 -997.8,-39.7 -1337.3,-39.7"
         style="fill:#d7d1da;fill-opacity:1;fill-rule:nonzero;stroke:none"
         transform="matrix(0.13333333,0,0,-0.13333333,0,5333.3333)" />
      <path
         id="path85"
         d="m 19223.2,21148.7 c -150.2,0 -285.8,5 -395.4,17.2 48.2,-1.6 105.7,-2.3 170.3,-2.3 339.5,0 878.9,19.8 1337.3,39.7 -354.8,-28.5 -770.9,-54.6 -1112.2,-54.6"
         style="fill:#b7acbc;fill-opacity:1;fill-rule:nonzero;stroke:none"
         transform="matrix(0.13333333,0,0,-0.13333333,0,5333.3333)" />
      <path
         id="path86"
         d="m 21388,21465.1 c 11.4,100.7 23.8,198.2 36.2,289.4 4.5,0.1 6.8,0.2 6.8,0.2 0,0 41.5,-241.6 0,-258.8 -8.6,-3.6 -23.7,-14.9 -43,-30.8"
         style="fill:#b7acbc;fill-opacity:1;fill-rule:nonzero;stroke:none"
         transform="matrix(0.13333333,0,0,-0.13333333,0,5333.3333)" />
      <path
         id="path87"
         d="m 14237.4,20633.2 c 281,-15.7 1034.2,-63.2 1257.2,-130.5 293.8,-88.6 557.7,-639.3 631.6,-806 14.5,-32.9 16.9,-69.8 6.6,-104.3 -382.3,-1283.4 176.7,-2704.8 182.4,-2719.1 16.7,-41.6 14,-88.6 -7.4,-128.1 -21.4,-39.5 -59.2,-67.4 -103.2,-76.2 -3.4,-0.7 -375.7,-79.6 -533.4,-323.6 -68.4,-105.9 -85.9,-227.7 -53.4,-372.4 29.1,-129.8 89.9,-219 191.2,-280.7 356.1,-216.7 1165.1,-46.2 1909.4,149.3 1006.7,264.2 886.9,1103.4 881.3,1139 l -216.1,1584.8 c -6.3,46.3 9.1,92.9 41.9,126.2 32.7,33.3 78.9,49.6 125.4,44.2 2289.3,-269.4 2823.1,578.5 2828.2,587.1 33.8,56.6 100.8,85.7 165,70.5 64.1,-15.1 111.5,-69.2 116.4,-134.9 45.4,-613.1 343.7,-636.1 356.4,-636.8 l 1140.8,0.1 c 58.6,121 182.8,335.1 415.6,572.9 256.2,261.8 587.1,344.9 774.5,371.2 0.9,99.3 -3.2,252.5 -25.7,439.9 -25.9,215.8 -347.8,369.8 -458.6,406.7 -62.9,21 -104.8,80.5 -103.2,146.8 0.1,6 11,613.4 -183.4,1488 -171.5,771.8 -738.6,801.2 -762.7,802.1 -66.6,2.4 -124.9,48.1 -141.9,112.5 l -143.8,546.5 c -17.2,65.5 11.3,134.5 69.7,168.7 1707.1,1000.7 3968.8,2603.9 5049,4558.7 481.5,871.2 574.9,1560.3 270.2,1992.6 -273.6,388.4 -785.5,462.2 -1062.7,416.7 -523.5,-85.4 -806.3,-645.3 -809.1,-651 -23.5,-47.5 -70.3,-79.3 -123.1,-83.6 -52.7,-4.5 -104.1,19.1 -135.1,62.2 -0.5,0.7 -112.6,150.1 -275,172.3 -95.3,12.9 -196.5,-21.5 -300.2,-102.5 -306.2,-239.2 -123.9,-1049.4 -35.9,-1314.4 15,-45.3 7.8,-95.2 -19.6,-134.3 -705.5,-1007.8 -3029.1,-2362.7 -3191.8,-2456.8 -1333.9,-927.9 -3418,-798.6 -3831.8,-762.2 -1693.2,-1583.6 -2707.3,-3982.9 -2717.4,-4007.2 -31.6,-75.6 -117.6,-112.2 -194,-82.7 -165,63.4 -651.4,186.4 -913.9,-3.1 -213.7,-154.4 -125.9,-492.9 -70.4,-648.6 M 16294,15288.7 c -259.2,0 -474.7,43.7 -642,145.5 -171.3,104.2 -282,263.2 -329,472.6 -50.6,225.5 -18.5,428.8 95.5,604.2 146,224.7 394.6,346.1 559.9,405.6 -139.7,414.8 -464.6,1581.8 -151,2707 -126.4,269.2 -316.8,558.7 -420,589.9 -170.6,51.5 -860.1,101.8 -1282,123.1 -55.5,2.8 -105,35.9 -128.8,86.1 -14.5,30.6 -350.3,754 134.3,1104 336.5,243 824.4,151.3 1061.4,84.7 238.8,534.9 1221.2,2594.4 2785.6,4031.6 32.1,29.5 75.4,43.7 118.7,38.9 23.3,-2.6 2340.2,-244.2 3700.6,706.5 3.6,2.5 7.3,4.9 11.1,7.1 23.7,13.6 2327.6,1348.5 3057.8,2312.4 -85,286.6 -310.4,1205.1 160.1,1572.7 171.7,134.1 350.2,189 531,163.2 132.9,-19.1 242.2,-80.2 322.4,-141.9 148.8,216.3 455.7,564.5 926.5,641.4 422.1,68.9 1027.2,-70.9 1358.3,-540.8 262.2,-372.1 431.2,-1075.3 -252.7,-2312.8 -1092.5,-1976.9 -3334.5,-3591.6 -5061.9,-4615 l 88.4,-335.9 c 305.3,-56.9 776,-316.6 933.6,-1025.9 157.1,-706.8 185.5,-1238.6 190,-1455.1 176.3,-79.7 519.6,-276.6 560.3,-616 44.5,-371.1 23,-618.1 22,-628.5 -7,-77.8 -72.3,-137.4 -150.4,-137.4 -3.7,0 -424.2,-6.1 -704.5,-292.5 -298.4,-304.8 -388.3,-558.6 -389.1,-561.2 -21.1,-60.9 -78.7,-102.5 -143.1,-102.5 h -1243.8 c -20.8,0 -447.3,7.8 -603.7,601.6 -338.2,-275.6 -1107.7,-658.1 -2700.5,-506.2 l 189.6,-1390.7 c 1.4,-8.3 164.3,-1142.3 -1103.5,-1475 -594.1,-156 -1100,-260.7 -1501.1,-260.7"
         style="fill:#371a45;fill-opacity:1;fill-rule:nonzero;stroke:none"
         transform="matrix(0.13333333,0,0,-0.13333333,0,5333.3333)" />
      <path
         id="path88"
         d="m 21289.9,23079 z m -2768.4,-109.5 v 0 z m -1397.3,-2554 c -2.8,0 -5.6,0.1 -8.4,0.3 -69.4,4.6 -121.9,64.5 -117.4,133.9 l 68.7,1044.3 c -69.8,93 -219.9,326 -219.9,608.3 0,329.8 210,464.4 321,489.5 9.1,2.1 18.4,3.1 27.8,3.1 h 981.4 c 23.8,155.1 80.3,390.8 209.3,485.9 35.3,26.1 129.2,95.2 1510.3,140.4 318.6,10.4 1368.7,40 1504.3,-18.2 184.3,-78.9 244.8,-505.6 263,-849.6 3.7,-69.4 -49.5,-128.6 -119,-132.3 -70.3,-3.8 -128.7,49.5 -132.4,118.9 -14.8,277.9 -68.3,563.9 -116.8,631.6 -296,51.6 -2534.5,-28.3 -2766.8,-99.4 -49.7,-50.7 -100.9,-254.6 -115.1,-414.3 -5.8,-64.9 -60.2,-114.8 -125.4,-114.8 h -1073.5 c -28.9,-12.2 -116.4,-63.9 -116.4,-240.8 0,-262.8 189.6,-482.6 191.6,-484.8 21.9,-25.1 33.3,-58.2 31.1,-91.4 l -71.9,-1092.9 c -4.4,-66.6 -59.8,-117.7 -125.5,-117.7"
         style="fill:#371a45;fill-opacity:1;fill-rule:nonzero;stroke:none"
         transform="matrix(0.13333333,0,0,-0.13333333,0,5333.3333)" />
      <path
         id="path89"
         d="m 21386.9,20721.1 c -20.5,0 -41.3,5.1 -60.6,15.7 -60.9,33.5 -83.1,109.9 -49.6,170.8 22.1,40.3 552.2,989.7 1396.4,1176.2 405.2,89.7 810.6,-11.7 1204.6,-301.2 56.1,-41.1 68.1,-119.9 27,-176 -41.2,-56 -120,-68.1 -176,-26.9 -332.8,244.4 -669.3,331.5 -1000.4,258.5 -732.4,-161.2 -1226.1,-1043 -1231,-1051.9 -23,-41.6 -66,-65.2 -110.4,-65.2"
         style="fill:#371a45;fill-opacity:1;fill-rule:nonzero;stroke:none"
         transform="matrix(0.13333333,0,0,-0.13333333,0,5333.3333)" />
      <path
         id="path90"
         d="m 23883.7,20407.3 c -271.8,27.8 -556.3,2.3 -811.6,-99.4 -171.3,-69.1 -283.3,-170.1 -467.1,-248.8 -10,-5.4 -22.9,4.5 -19.8,15.6 31.7,132.5 110.2,248 215,329.7 281.6,240.4 665.7,345.1 1032,314.9 34.9,-3 65.4,-7.5 106.7,-15 82,-14.9 136.3,-93.4 121.4,-175.4 -14.8,-83 -95.1,-136.3 -176.6,-121.6"
         style="fill:#371a45;fill-opacity:1;fill-rule:nonzero;stroke:none"
         transform="matrix(0.13333333,0,0,-0.13333333,0,5333.3333)" />
      <path
         id="path91"
         d="m 19226.4,21018.2 c -196.5,0 -356.6,7.2 -450.7,25.1 l -12.7,2.4 c -553.5,105.3 -572,227.9 -600.1,1520.6 -1.5,69.5 53.7,127 123.2,128.6 69.3,1.5 127,-53.7 128.6,-123.2 12.7,-586.5 24.9,-954.4 86.3,-1118.3 38.1,-101.9 78,-116.4 309,-160.3 l 12.9,-2.5 c 357.6,-68.1 1970.7,46.1 2562.1,95.9 69.2,6.2 130.2,-45.6 136,-114.9 5.9,-69.3 -45.6,-130.2 -114.9,-136 -70.3,-6 -1406,-117.4 -2179.7,-117.4"
         style="fill:#371a45;fill-opacity:1;fill-rule:nonzero;stroke:none"
         transform="matrix(0.13333333,0,0,-0.13333333,0,5333.3333)" />
      <path
         id="path92"
         d="m 17195.9,21508.4 c -67.3,0 -123.1,53.2 -125.7,121 -2.8,69.5 51.4,128 120.8,130.7 l 1132.4,44.3 c 69.3,3.3 128,-51.4 130.7,-120.9 2.7,-69.5 -51.4,-128 -120.9,-130.7 l -1132.3,-44.3 c -1.7,0 -3.4,-0.1 -5,-0.1"
         style="fill:#371a45;fill-opacity:1;fill-rule:nonzero;stroke:none"
         transform="matrix(0.13333333,0,0,-0.13333333,0,5333.3333)" />
      <path
         id="path93"
         d="m 19161.1,22260.5 c -3.1,-6.4 -5,-12.1 -6.1,-16.4 1.5,5.7 3.6,11.2 6.1,16.4 z m 191.3,-44.7 c -1.9,-18.6 -4.1,-28 -6.3,-34.5 4.5,11.9 6.3,23.6 6.3,34.5 z m 446,-1158.6 c -53.6,0 -98.2,42.3 -100.5,96.4 l -33,765.2 c -476.6,182.6 -489.9,215.9 -506.6,257.8 -7.6,19.1 -9.2,41.3 -4.8,61.8 6.6,62.6 3.7,521.6 -2.4,927.4 -0.9,55.6 43.5,101.4 99.2,102.2 54.2,1.4 101.3,-43.6 102.2,-99.2 8.4,-560.3 7.7,-797.2 3.1,-902.6 82.2,-40.6 276.2,-119.6 442.8,-182.6 37.6,-14.3 63.2,-49.7 64.9,-89.9 l 35.8,-831.5 c 2.4,-55.5 -40.7,-102.5 -96.3,-104.9 -1.5,-0.1 -2.9,-0.1 -4.4,-0.1"
         style="fill:#371a45;fill-opacity:1;fill-rule:nonzero;stroke:none"
         transform="matrix(0.13333333,0,0,-0.13333333,0,5333.3333)" />
      <path
         id="path94"
         d="m 20941.4,22378.5 c 0,-192.6 -156.1,-348.8 -348.7,-348.8 -192.6,0 -348.7,156.2 -348.7,348.8 0,192.5 156.1,348.7 348.7,348.7 192.6,0 348.7,-156.2 348.7,-348.7"
         style="fill:#5dd2ff;fill-opacity:1;fill-rule:nonzero;stroke:none"
         transform="matrix(0.13333333,0,0,-0.13333333,0,5333.3333)" />
      <path
         id="path95"
         d="m 20592.7,22626.5 c -136.7,0 -248,-111.3 -248,-248.1 0,-136.7 111.3,-247.9 248,-247.9 136.8,0 248,111.2 248,247.9 0,136.8 -111.2,248.1 -248,248.1 z m 0,-697.5 c -247.8,0 -449.4,201.6 -449.4,449.4 0,247.9 201.6,449.5 449.4,449.5 247.8,0 449.4,-201.6 449.4,-449.5 0,-247.8 -201.6,-449.4 -449.4,-449.4"
         style="fill:#371a45;fill-opacity:1;fill-rule:nonzero;stroke:none"
         transform="matrix(0.13333333,0,0,-0.13333333,0,5333.3333)" />
      <path
         id="path96"
         d="m 17196.5,22601.2 c 100.7,385.3 233.8,758.3 389,1124.5 162.7,361.7 312.3,737.3 588.1,1032.4 7.2,7.6 21.5,0.4 18.3,-10.3 -49.3,-196.8 -122.7,-375.6 -195.1,-556.3 -144.8,-360.8 -269.7,-729.1 -387.8,-1099.3 -44.2,-138.7 -129.2,-417.6 -169.7,-557.4 -49.7,-154.5 -278.6,-92.4 -242.8,66.4"
         style="fill:#371a45;fill-opacity:1;fill-rule:nonzero;stroke:none"
         transform="matrix(0.13333333,0,0,-0.13333333,0,5333.3333)" />
      <path
         id="path97"
         d="m 22535.1,23488.9 c -163.2,354 -341.9,756.7 -529.1,1096.3 -67.4,117.5 -128.8,236 -171.3,380.5 -2.3,7.3 1.9,15.2 9.2,17.3 142.8,-53.6 247.8,-171.4 336.8,-281.4 259.4,-336.6 474.4,-701.8 633.5,-1096.9 30.3,-77.7 -8.1,-165.3 -85.9,-195.7 -75.7,-29.6 -160.9,6.4 -193.2,79.9"
         style="fill:#371a45;fill-opacity:1;fill-rule:nonzero;stroke:none"
         transform="matrix(0.13333333,0,0,-0.13333333,0,5333.3333)" />
      <path
         id="path98"
         d="m 25507.6,25404.3 c -9.1,0 -18.2,1 -27.4,3 -1406.9,311.9 -1732.3,2068.9 -1745.5,2143.5 -12,68.4 33.6,133.7 102.1,145.8 68.3,12.1 133.7,-33.5 145.9,-102 2.9,-16.6 310.3,-1666.2 1552,-1941.5 67.8,-15.1 110.7,-82.3 95.6,-150.2 -13,-58.7 -65,-98.6 -122.7,-98.6"
         style="fill:#371a45;fill-opacity:1;fill-rule:nonzero;stroke:none"
         transform="matrix(0.13333333,0,0,-0.13333333,0,5333.3333)" />
      <path
         id="path99"
         d="m 17123,22408.7 c -12.4,0 -25,1.8 -37.5,5.7 -528.6,164.6 -913,773.6 -929.1,799.4 -36.7,59 -18.7,136.7 40.3,173.4 59,36.8 136.6,18.8 173.4,-40.2 5,-7.9 352.6,-556 790.3,-692.2 66.3,-20.7 103.4,-91.2 82.7,-157.6 -16.7,-53.9 -66.5,-88.5 -120.1,-88.5"
         style="fill:#371a45;fill-opacity:1;fill-rule:nonzero;stroke:none"
         transform="matrix(0.13333333,0,0,-0.13333333,0,5333.3333)" />
      <path
         id="path100"
         d="m 15357.1,21553.4 c 125.4,-71.9 234.2,-160.3 338.2,-259.1 102.9,-111.3 229.9,-196.9 237.3,-370.5 0.2,-9.2 -7.1,-16.9 -16.3,-17 -166.6,13.7 -250.9,105.8 -383.3,175.8 -114.7,68.3 -233.1,139 -340,217.3 -149.3,114.7 -0.6,342.7 164.1,253.5"
         style="fill:#371a45;fill-opacity:1;fill-rule:nonzero;stroke:none"
         transform="matrix(0.13333333,0,0,-0.13333333,0,5333.3333)" />
      <path
         id="path101"
         d="m 18386.1,18551.7 c -86.9,306.2 -180.1,654 -295.9,949 -42.7,102.2 -79.2,204.5 -95.5,332.6 -1.7,10.8 10.5,19.7 20.2,14.6 117.9,-56.6 198.3,-151 261.8,-250.8 126.2,-199.9 228.5,-413.5 306.4,-636.2 39.3,-111.4 72.6,-221.3 97.3,-341 16.9,-81.7 -35.7,-161.6 -117.4,-178.5 -79.4,-16.4 -157.1,33 -176.9,110.3"
         style="fill:#371a45;fill-opacity:1;fill-rule:nonzero;stroke:none"
         transform="matrix(0.13333333,0,0,-0.13333333,0,5333.3333)" />
      <path
         id="path102"
         d="m 15852.2,18280.3 c -45.9,0 -90.1,25.1 -112.3,68.8 -31.6,61.9 -7.1,137.6 54.8,169.2 53.6,27.4 1328.3,665.6 2750.4,273.9 67.1,-18.5 106.4,-87.8 88,-154.8 -18.5,-67 -87.8,-106.4 -154.8,-88 -1325.4,365.4 -2556.9,-249.1 -2569.1,-255.3 -18.3,-9.3 -37.8,-13.8 -57,-13.8"
         style="fill:#371a45;fill-opacity:1;fill-rule:nonzero;stroke:none"
         transform="matrix(0.13333333,0,0,-0.13333333,0,5333.3333)" />
      <path
         id="path103"
         d="m 16146.9,16965.5 c 202.4,45.4 406.9,70.6 613.3,86.7 214,6.3 422.4,55.6 629.2,-46.4 9.7,-4.8 10.5,-19.3 1.4,-25.1 -97.6,-67.6 -193.9,-99.4 -293.2,-121.6 -287.7,-67.8 -604.5,-148.1 -895.3,-190.6 -190.4,-23.3 -240.8,250 -55.4,297"
         style="fill:#371a45;fill-opacity:1;fill-rule:nonzero;stroke:none"
         transform="matrix(0.13333333,0,0,-0.13333333,0,5333.3333)" />
      <path
         id="path104"
         d="m 24167.3,22404.7 z m -406.9,-645.4 c -52.1,0 -102.8,27 -130.8,75.4 -41.8,72.2 -17.2,164.6 55,206.4 209.8,121.7 417.8,275.4 472.2,347.1 -61.5,179.6 -450.2,921.1 -813.6,1576.2 -40.4,72.9 -14.1,164.9 58.9,205.4 72.9,40.4 164.9,14.1 205.4,-58.9 569,-1025.8 857.5,-1608.7 857.5,-1732.5 0,-57.9 0,-234.4 -629,-598.7 -23.8,-13.8 -49.9,-20.4 -75.6,-20.4"
         style="fill:#371a45;fill-opacity:1;fill-rule:nonzero;stroke:none"
         transform="matrix(0.13333333,0,0,-0.13333333,0,5333.3333)" />
      <path
         id="path105"
         d="m 16635.3,23693.1 c -75.8,0 -141.2,57 -149.9,134.1 -15.1,133.1 -144.8,1310.3 -77.6,1653.9 58.2,297.9 534.6,309.1 943.2,285.7 377.1,-21.7 739.5,-83.6 754.7,-86.2 82.2,-14.2 137.4,-92.3 123.3,-174.5 -14.1,-82.2 -92.3,-137.2 -174.5,-123.3 -621.9,106.9 -1245.6,120.1 -1352.1,29.9 -45.1,-267.5 44.4,-1207.4 83.2,-1551.6 9.3,-82.9 -50.3,-157.7 -133.2,-167 -5.7,-0.7 -11.5,-1 -17.1,-1"
         style="fill:#371a45;fill-opacity:1;fill-rule:nonzero;stroke:none"
         transform="matrix(0.13333333,0,0,-0.13333333,0,5333.3333)" />
      <path
         id="path106"
         d="m 26051.6,30113.6 c 78.7,-180.7 123.7,-373.2 161.8,-566.1 13.5,-64.6 17,-132.9 -18.3,-215.6 -3.9,-9.1 -14.7,-13.2 -23.6,-8.8 -146.4,74 -176.4,200.6 -249.8,324.5 -59.8,116.3 -114.7,235.5 -153.2,360.5 -50.7,180.9 204.1,274.7 283.1,105.5"
         style="fill:#371a45;fill-opacity:1;fill-rule:nonzero;stroke:none"
         transform="matrix(0.13333333,0,0,-0.13333333,0,5333.3333)" />
      <path
         id="path107"
         d="m 21509.7,19096.2 c -72.1,0 -135.8,51.7 -148.7,125.1 -10.6,61 -258,1510.8 -28.8,2942.1 48.7,304.3 219,576.1 467.1,745.7 l 9.5,6.5 c 352.1,238.2 984.1,236.6 1010.8,235.8 83.5,-0.6 150.5,-68.8 149.9,-152.2 -0.6,-83 -68.2,-149.9 -151,-149.9 h -1.2 c -154.9,0.2 -611.6,-30 -838.7,-183.6 l -8.6,-6 c -180.1,-123.1 -303.8,-321.4 -339.5,-544.1 -221,-1380 25.7,-2827.9 28.2,-2842.4 14.3,-82.2 -40.7,-160.4 -122.9,-174.8 -8.8,-1.5 -17.5,-2.2 -26.1,-2.2"
         style="fill:#371a45;fill-opacity:1;fill-rule:nonzero;stroke:none"
         transform="matrix(0.13333333,0,0,-0.13333333,0,5333.3333)" />
      <path
         id="path108"
         d="m 15988.1,19484.7 c -13.4,0 -26.9,1.8 -40.4,5.5 -80.2,22.3 -127.3,104.9 -105.4,185.1 82.3,301 418.8,868.3 1116.8,979.3 l 82.1,943.7 c 7.2,83.1 80.8,144.5 163.6,137.4 83.1,-7.3 144.6,-80.5 137.4,-163.6 l -92.8,-1066.4 c -6.4,-73.9 -65.6,-132.2 -139.5,-137.6 -765.6,-55.6 -968,-743.7 -976.3,-773 -18.8,-66.6 -79.5,-110.4 -145.5,-110.4"
         style="fill:#371a45;fill-opacity:1;fill-rule:nonzero;stroke:none"
         transform="matrix(0.13333333,0,0,-0.13333333,0,5333.3333)" />
      <path
         id="path109"
         d="m 19365.9,24783.9 c -646.3,0 -1163,158.8 -1514.1,314.4 21,21.6 42.1,43.2 63.3,64.6 351.8,-72.3 714.3,-110.1 1083.5,-110.1 229.7,0 462.3,14.7 696.1,44.8 878.7,113.1 1698.3,431.2 2405,923.5 -316.7,-351.3 -1095.5,-1071.3 -2257.5,-1208.9 -165.6,-19.6 -324.5,-28.3 -476.3,-28.3"
         style="fill:#c3bac7;fill-opacity:1;fill-rule:nonzero;stroke:none"
         transform="matrix(0.13333333,0,0,-0.13333333,0,5333.3333)" />
      <path
         id="path110"
         d="m 17568.7,25240.3 c -6.7,3.8 -13.3,7.5 -19.7,11.2 8.1,-2.2 16,-4.4 24.1,-6.6 -1.4,-1.5 -2.9,-3.1 -4.4,-4.6"
         style="fill:#998aa0;fill-opacity:1;fill-rule:nonzero;stroke:none"
         transform="matrix(0.13333333,0,0,-0.13333333,0,5333.3333)" />
      <path
         id="path111"
         d="m 17851.8,25098.3 c -111.4,49.4 -206.1,98.4 -283.1,142 1.5,1.5 3,3.1 4.4,4.6 112.7,-31 226.9,-58.4 342,-82 -21.2,-21.4 -42.3,-43 -63.3,-64.6"
         style="fill:#371a45;fill-opacity:1;fill-rule:nonzero;stroke:none"
         transform="matrix(0.13333333,0,0,-0.13333333,0,5333.3333)" />
      <path
         id="path112"
         d="m 13571.8,31071.6 103.6,20.9 c 53.2,10.7 105,-23.7 115.8,-76.9 l 615.4,-3052.6 c 10.8,-53.2 -23.7,-105.1 -76.9,-115.8 l -103.6,-20.9 c -558.2,-112.5 -1101.9,248.7 -1214.4,806.9 l -246.8,1224 c -112.5,558.2 248.7,1101.9 806.9,1214.4"
         style="fill:#ffffff;fill-opacity:1;fill-rule:nonzero;stroke:none"
         transform="matrix(0.13333333,0,0,-0.13333333,0,5333.3333)" />
      <path
         id="path113"
         d="m 13694.9,31067.6 c -4.7,0 -9.4,-0.5 -14.2,-1.4 l -103.6,-20.9 c -263,-53 -489.5,-205.2 -637.9,-428.7 -148.4,-223.3 -201,-491.2 -148,-754.1 l 246.8,-1224 c 53,-263 205.2,-489.5 428.6,-637.9 223.4,-148.5 491.2,-201.1 754.2,-148 l 103.6,20.9 c 18.7,3.8 34.8,14.6 45.4,30.5 10.6,15.9 14.3,35 10.5,53.6 l -615.5,3052.7 c -6.8,33.8 -36.6,57.3 -69.9,57.3 m 325.2,-3288.8 c -206.1,0 -407.6,60.4 -583.2,177.1 -235.3,156.3 -395.7,395 -451.5,672 l -246.8,1224 c -115.3,571.8 256.1,1130.7 827.9,1246 l 5.3,-26.3 -5.3,26.3 103.6,20.9 c 32.7,6.6 66.1,0.1 94,-18.4 27.8,-18.5 46.8,-46.7 53.4,-79.5 l 615.5,-3052.7 c 6.6,-32.7 0,-66.1 -18.5,-93.9 -18.5,-27.9 -46.7,-46.8 -79.5,-53.4 l -103.6,-20.9 c -70.4,-14.2 -141.1,-21.2 -211.3,-21.2"
         style="fill:#371944;fill-opacity:1;fill-rule:nonzero;stroke:none"
         transform="matrix(0.13333333,0,0,-0.13333333,0,5333.3333)" />
      <path
         id="path114"
         d="m 14020.5,27955.1 c -171.7,0 -339.7,50.4 -486,147.6 -196.2,130.3 -329.8,329.2 -376.3,560 l -59.1,293 c 198.5,-164.7 452.1,-260.6 719.8,-260.6 19.6,0 39.2,0.5 59,1.6 87.2,-251.3 192.1,-493.3 313.1,-725 -56.8,-11.1 -113.8,-16.6 -170.5,-16.6"
         style="fill:#d7d1da;fill-opacity:1;fill-rule:nonzero;stroke:none"
         transform="matrix(0.13333333,0,0,-0.13333333,0,5333.3333)" />
      <path
         id="path115"
         d="m 13654.8,30935.9 -53.5,-10.8 c -476.5,-96 -786,-561.9 -689.9,-1038.3 l 246.8,-1224.1 c 46.5,-230.8 180.1,-429.7 376.3,-560 196.1,-130.3 431.2,-176.5 662,-129.9 l 53.6,10.8 -595.3,2952.3 m 365.1,-3279.7 c -230,0 -454.9,67.4 -650.8,197.6 -262.6,174.5 -441.6,440.8 -503.9,749.8 l -246.8,1224.1 c -128.6,638 285.8,1261.7 923.8,1390.4 l 29.6,-146.5 -29.6,146.5 103.7,20.9 c 133.9,27 264.7,-59.9 291.7,-193.9 l 615.5,-3052.6 c 13.1,-64.9 0.1,-130.9 -36.5,-186 -36.6,-55.2 -92.5,-92.7 -157.4,-105.8 l -103.6,-20.9 c -78.5,-15.8 -157.4,-23.6 -235.7,-23.6"
         style="fill:#371944;fill-opacity:1;fill-rule:nonzero;stroke:none"
         transform="matrix(0.13333333,0,0,-0.13333333,0,5333.3333)" />
      <path
         id="path116"
         d="m 23884.2,32844.3 -104.7,-14.9 c -53.7,-7.7 -91.1,-57.4 -83.4,-111.1 l 439.2,-3083 c 7.7,-53.7 57.4,-91.1 111.2,-83.4 l 104.6,14.9 c 563.7,80.3 955.6,602.4 875.3,1166.1 l -176.2,1236.2 c -80.3,563.7 -602.3,955.5 -1166,875.2"
         style="fill:#ffffff;fill-opacity:1;fill-rule:nonzero;stroke:none"
         transform="matrix(0.13333333,0,0,-0.13333333,0,5333.3333)" />
      <path
         id="path117"
         d="m 23888,32817.7 -104.7,-14.9 c -39,-5.5 -66.2,-41.8 -60.6,-80.8 l 439.2,-3082.9 c 5.6,-39 42,-66.2 80.8,-60.6 l 104.6,14.9 c 548.2,78.1 930.6,587.6 852.5,1135.7 l -176.2,1236.2 c -37.8,265.5 -176.7,500.4 -391.2,661.4 -214.5,161 -478.9,228.9 -744.4,191 m 344.5,-3293.6 c -61.2,0 -114.9,45.1 -123.8,107.4 l -439.2,3083 c -9.8,68.2 37.9,131.7 106.2,141.5 l 104.7,14.9 c 279.8,39.9 558.2,-31.6 784.2,-201.2 226,-169.6 372.3,-417.1 412.2,-696.8 l 176.2,-1236.2 c 82.2,-577.5 -320.6,-1114.2 -898.1,-1196.5 l -104.7,-14.9 c -5.9,-0.8 -11.8,-1.2 -17.7,-1.2"
         style="fill:#371944;fill-opacity:1;fill-rule:nonzero;stroke:none"
         transform="matrix(0.13333333,0,0,-0.13333333,0,5333.3333)" />
      <path
         id="path118"
         d="m 24376.7,29722.6 c 36.3,261.4 53.5,526.4 51.1,793.2 260.1,87.5 473.5,265.5 608.5,492 l 42.2,-296 c 66.3,-465.5 -245.8,-899.3 -701.8,-989.2"
         style="fill:#d7d1da;fill-opacity:1;fill-rule:nonzero;stroke:none"
         transform="matrix(0.13333333,0,0,-0.13333333,0,5333.3333)" />
      <path
         id="path119"
         d="m 23851.2,32688.7 424.8,-2981.7 54,7.7 c 481.3,68.6 817,515.9 748.5,997.1 l -176.2,1236.2 c -33.2,233.1 -155.2,439.3 -343.5,580.7 -188.4,141.4 -420.4,200.9 -653.5,167.7 l -54.1,-7.7 m 381.3,-3287.2 c -121.3,0 -227.5,89.3 -245.1,212.7 l -439.3,3083 c -19.2,135.2 75.1,260.8 210.3,280.1 l 104.7,15 c 312,44.5 622.9,-35.3 875.1,-224.6 252.1,-189.3 415.5,-465.4 460,-777.5 l 176.1,-1236.3 c 91.8,-644.3 -357.7,-1243.2 -1002.1,-1335 l -104.6,-14.9 c -11.8,-1.7 -23.5,-2.5 -35.1,-2.5"
         style="fill:#371944;fill-opacity:1;fill-rule:nonzero;stroke:none"
         transform="matrix(0.13333333,0,0,-0.13333333,0,5333.3333)" />
      <path
         id="path120"
         d="m 24234.5,31151.1 c 371.8,-2889.6 -1669.3,-5533.5 -4558.9,-5905.3 -2889.6,-371.8 -5533.5,1669.3 -5905.3,4558.9 -371.8,2889.6 1669.3,5533.5 4558.9,5905.3 2889.6,371.9 5533.5,-1669.2 5905.3,-4558.9"
         style="fill:#ffffff;fill-opacity:1;fill-rule:nonzero;stroke:none"
         transform="matrix(0.13333333,0,0,-0.13333333,0,5333.3333)" />
      <path
         id="path121"
         d="m 19013.2,35727.2 c -225.8,0 -452.9,-14.5 -680.6,-43.8 -2870.3,-369.3 -4905,-3004.9 -4535.7,-5875.3 340.2,-2643.9 2603.6,-4578.9 5201.8,-4579 222.4,0 447.2,14.2 673.5,43.3 2870.3,369.3 4905.1,3005 4535.7,5875.3 -178.9,1390.4 -888.5,2628 -1998.2,3484.7 -928.1,716.4 -2043.1,1094.8 -3196.5,1094.8 m -14.5,-10551.8 c -2625.1,0 -4911.3,1954.7 -5255,4625.9 -373.1,2899.7 1682.4,5562.3 4582.1,5935.4 1404.7,180.6 2795.6,-196.4 3916.7,-1061.8 1121,-865.5 1837.9,-2115.7 2018.7,-3520.3 180.7,-1404.7 -196.4,-2795.7 -1061.8,-3916.7 -865.5,-1121.1 -2115.7,-1838 -3520.4,-2018.7 -228.4,-29.4 -455.8,-43.8 -680.3,-43.8"
         style="fill:#371944;fill-opacity:1;fill-rule:nonzero;stroke:none"
         transform="matrix(0.13333333,0,0,-0.13333333,0,5333.3333)" />
      <path
         id="path122"
         d="m 18999.3,25351.7 c -0.2,0 -0.3,0 -0.5,0 -1167.2,0 -2265.2,399.9 -3143.1,1083.1 425.9,-205.4 988.7,-398.5 1623.1,-516.5 394.8,-73.5 817.1,-117.9 1251.5,-117.9 298.2,0 602.1,21 906.5,67.7 744.2,114.1 1422.2,341.6 2005,617.2 536.8,253.9 992.9,548.8 1345.6,833.6 49.5,40 96.9,79.7 142.2,119.2 -22.9,-31.1 -46.1,-61.9 -69.8,-92.5 -836.7,-1083.8 -2045.3,-1776.9 -3403.2,-1951.6 -221,-28.4 -440.2,-42.3 -657.3,-42.3"
         style="fill:#d7d1da;fill-opacity:1;fill-rule:nonzero;stroke:none"
         transform="matrix(0.13333333,0,0,-0.13333333,0,5333.3333)" />
      <path
         id="path123"
         d="m 19012.9,35604.6 c -220.5,0 -442.3,-14.2 -664.6,-42.7 -1358,-174.8 -2566.6,-867.9 -3403.3,-1951.6 -836.7,-1083.8 -1201.2,-2428.5 -1026.5,-3786.5 332.2,-2582.2 2542.7,-4472 5080.3,-4472.1 217.2,0 436.7,13.8 657.8,42.3 1357.9,174.7 2566.5,867.8 3403.2,1951.6 836.7,1083.8 1201.3,2428.5 1026.6,3786.5 -174.8,1357.9 -867.9,2566.6 -1951.6,3403.2 -906.4,699.8 -1995.4,1069.3 -3121.9,1069.3 m -14.3,-10551.8 c -2685.7,0 -5024.9,1999.9 -5376.5,4732.9 -381.7,2966.7 1721.3,5690.8 4688.1,6072.5 1437,185 2860.2,-200.8 4007.2,-1086.3 1146.9,-885.5 1880.4,-2164.6 2065.3,-3601.7 185,-1437.1 -200.8,-2860.3 -1086.3,-4007.2 -885.5,-1147 -2164.6,-1880.5 -3601.7,-2065.4 -233.8,-30.1 -466.4,-44.8 -696.1,-44.8"
         style="fill:#371944;fill-opacity:1;fill-rule:nonzero;stroke:none"
         transform="matrix(0.13333333,0,0,-0.13333333,0,5333.3333)" />
      <path
         id="path124"
         d="m 24235.1,31014.6 c 147.2,-1021.8 -47.8,-2018.1 -502,-2884.7 -340.5,-649.6 -1940.3,-1931.2 -4096.2,-2261.6 -1998.9,-306.3 -3973.8,498.5 -4483.8,1025.6 -680.3,703.2 -1148.6,1604 -1295.8,2625.7 -389.5,2703.8 1772.1,4159.4 4637.9,4572.2 2865.9,412.9 5350.4,-373.4 5739.9,-3077.2"
         style="fill:#371944;fill-opacity:1;fill-rule:nonzero;stroke:none"
         transform="matrix(0.13333333,0,0,-0.13333333,0,5333.3333)" />
      <path
         id="path125"
         d="m 22480.1,30205.7 c -6,0 -12.1,0.1 -18.1,0.3 -373.4,13.5 -660.9,442.2 -642.3,957.4 18.4,507 326.3,908.8 691.8,908.8 6,0 12,-0.1 18,-0.3 301.8,-10.9 547.5,-293 620.8,-672.8 -6.7,-231.6 -27,-461.1 -60.1,-687.4 -117.9,-301.4 -349.3,-506 -610.1,-506"
         style="fill:#9b8ca2;fill-opacity:1;fill-rule:nonzero;stroke:none"
         transform="matrix(0.13333333,0,0,-0.13333333,0,5333.3333)" />
      <path
         id="path126"
         d="m 21920.3,28763.6 c -18.4,0 -37,1.6 -55.6,4.9 -200,35.3 -328.7,252.8 -287.6,485.9 37.3,211.3 201.6,362.9 381.1,362.9 18.4,0 37,-1.6 55.5,-4.9 200,-35.3 328.8,-252.9 287.6,-485.9 -37.3,-211.4 -201.6,-362.9 -381,-362.9"
         style="fill:#9b8ca2;fill-opacity:1;fill-rule:nonzero;stroke:none"
         transform="matrix(0.13333333,0,0,-0.13333333,0,5333.3333)" />
      <path
         id="path127"
         d="m 23625.3,32627.3 c -0.6,0.8 -1.1,1.6 -1.7,2.4 0.6,-0.8 1.1,-1.6 1.7,-2.4 m -2.8,3.9 c -210.8,298.9 -466.5,551.2 -759.9,760.1 0,0.1 0,0.2 -0.1,0.3 293.4,-208.9 549.2,-461.4 760,-760.4"
         style="fill:#acafb4;fill-opacity:1;fill-rule:nonzero;stroke:none"
         transform="matrix(0.13333333,0,0,-0.13333333,0,5333.3333)" />
      <path
         id="path128"
         d="m 18730.3,25800.4 c -434.4,0 -856.7,44.4 -1251.5,117.9 394.7,-73.3 817,-117.6 1251.3,-117.6 298.3,0 602.3,20.9 906.8,67.6 744.3,114 1422.2,341.4 2004.9,617 -582.8,-275.6 -1260.8,-503.1 -2005,-617.2 -304.4,-46.7 -608.3,-67.7 -906.5,-67.7 m 4257.1,1518.5 c 49.5,40 96.9,79.8 142.3,119.2 h -0.1 c -45.3,-39.5 -92.7,-79.2 -142.2,-119.2"
         style="fill:#92919c;fill-opacity:1;fill-rule:nonzero;stroke:none"
         transform="matrix(0.13333333,0,0,-0.13333333,0,5333.3333)" />
      <path
         id="path129"
         d="m 23129.6,27438.1 h 0.1 c 296.9,258.2 503.9,502 603.4,691.8 70.5,134.6 134.8,272.3 192.6,412.8 -57.7,-140.5 -122,-278.2 -192.5,-412.8 -99.5,-189.8 -306.6,-433.6 -603.6,-691.8"
         style="fill:#29193a;fill-opacity:1;fill-rule:nonzero;stroke:none"
         transform="matrix(0.13333333,0,0,-0.13333333,0,5333.3333)" />
      <path
         id="path130"
         d="m 18730.1,25800.7 c -434.3,0 -856.6,44.3 -1251.3,117.6 -11.8,2.2 -23.7,4.5 -35.4,6.7 2641.3,462.9 4588.7,2033.5 5011,2839.3 317.8,606.4 535.7,1263 635.8,1947.4 47.3,121 76.3,257.6 81.6,402.8 3.6,98.8 -4.1,194.5 -21.5,284.6 9.8,338.2 -9.2,681.1 -59,1026.2 -49.6,346.4 -127.1,668 -228.7,966 293.4,-208.9 549.1,-461.2 759.9,-760.1 0.4,-0.5 0.8,-1 1.1,-1.5 0.6,-0.8 1.1,-1.6 1.7,-2.4 306.2,-435.7 517.1,-970 609.7,-1612.6 124.4,-863.2 4.4,-1708.1 -309.3,-2472 -57.8,-140.5 -122.1,-278.2 -192.6,-412.8 -99.5,-189.8 -306.5,-433.6 -603.4,-691.8 -45.4,-39.4 -92.8,-79.2 -142.3,-119.2 -352.7,-284.8 -808.7,-579.6 -1345.6,-833.6 -582.7,-275.6 -1260.6,-503 -2004.9,-617 -304.5,-46.7 -608.5,-67.6 -906.8,-67.6"
         style="fill:#29193a;fill-opacity:1;fill-rule:nonzero;stroke:none"
         transform="matrix(0.13333333,0,0,-0.13333333,0,5333.3333)" />
      <path
         id="path131"
         d="m 23090.2,30711.7 c 33.1,226.3 53.4,455.8 60.1,687.4 17.4,-90.1 25.1,-185.8 21.5,-284.6 -5.3,-145.2 -34.3,-281.8 -81.6,-402.8"
         style="fill:#6a6477;fill-opacity:1;fill-rule:nonzero;stroke:none"
         transform="matrix(0.13333333,0,0,-0.13333333,0,5333.3333)" />
      <path
         id="path132"
         d="m 13915.9,31732.6 c -26.3,0 -53,7 -77.1,21.6 -68,41.2 -91.7,127.9 -54.7,197.4 724.6,1481.7 2394.5,2512 4582.4,2827.3 2174.1,313.2 4064,-179.5 5185.7,-1351.3 47.7,-47.7 58.9,-123.4 22.5,-183.5 -42.4,-69.8 -132.7,-93.1 -203.2,-51.5 l -17.9,10.5 -15.1,15.5 c -1053.9,1103.1 -2850.6,1564 -4929.4,1264.5 -2090.2,-301.2 -3678.8,-1273 -4358.2,-2666.3 l -7.6,-13.7 c -28.4,-45.4 -77.3,-70.5 -127.4,-70.5"
         style="fill:#371944;fill-opacity:1;fill-rule:nonzero;stroke:none"
         transform="matrix(0.13333333,0,0,-0.13333333,0,5333.3333)" />
      <path
         id="path133"
         d="m 15254.3,28079 c 0,0 -1221.6,2546.7 62.8,3816.7 1094.9,1082.7 2759.9,1455.8 3209.2,1455.8 77.7,0 119,-11.1 114.7,-31.7 0,0 -2209.8,-884.2 -2844.9,-2823.3 -489.7,-1495.3 -541.8,-2417.5 -541.8,-2417.5"
         style="fill:#9b8ca2;fill-opacity:1;fill-rule:nonzero;stroke:none"
         transform="matrix(0.13333333,0,0,-0.13333333,0,5333.3333)" />
      <path
         id="path134"
         d="m 11875.1,32821.1 c 160.7,263 240,578.8 206.1,909.1 -82.3,801.8 -799.1,1385.1 -1600.8,1302.7 -801.82,-82.3 -1385.06,-799 -1302.74,-1600.8 82.32,-801.8 799.03,-1385 1600.84,-1302.7 223,22.9 429,95 608.6,204.3 l 675.4,-151.5 -187.4,638.9"
         style="fill:#ff0068;fill-opacity:1;fill-rule:nonzero;stroke:none"
         transform="matrix(0.13333333,0,0,-0.13333333,0,5333.3333)" />
      <path
         id="path135"
         d="m 9357.04,33963.2 c 49.34,164.3 130.96,319 242.5,456 223.88,275.1 541.46,446.6 894.26,482.8 45.9,4.7 91.4,7.1 136.6,7.1 493.6,0 936.7,-275.4 1164.7,-692.2 -269.9,334.9 -682.9,544.6 -1135.3,544.6 -49.8,0 -100.1,-2.6 -150.8,-7.8 -511.86,-52.5 -934.61,-363.7 -1151.96,-790.5"
         style="fill:#ff80b4;fill-opacity:1;fill-rule:nonzero;stroke:none"
         transform="matrix(0.13333333,0,0,-0.13333333,0,5333.3333)" />
      <path
         id="path136"
         d="m 10630.4,34909.1 c -45.2,0 -90.7,-2.4 -136.6,-7.1 -352.8,-36.2 -670.38,-207.7 -894.26,-482.8 -223.84,-275 -327.17,-620.8 -290.93,-973.6 74.78,-728.4 728.39,-1260.2 1456.49,-1185.3 198.1,20.4 384.4,82.9 553.6,185.8 29.1,17.7 63.9,23.4 97.2,16 l 457.4,-102.6 -124.5,424.6 c -10.5,35.6 -5.4,74 14,105.6 152.5,249.7 217.4,535.7 187.4,827.1 -70,682.4 -648.1,1192.3 -1319.8,1192.3 m -2.1,-2919 c -804.98,-0.1 -1497.58,610.8 -1581.56,1428.6 -43.39,422.7 80.42,837.1 348.65,1166.7 268.24,329.6 648.81,535.1 1071.51,578.5 873.1,88.9 1655.6,-547.6 1745.2,-1420.2 33.8,-329.5 -33.5,-653.3 -194.8,-940.1 l 171.5,-584.4 c 13.1,-44.7 1.6,-93 -30.3,-127 -31.9,-34 -79.4,-48.7 -124.8,-38.4 l -624.9,140.1 c -190.3,-107.2 -397.5,-172.9 -616.9,-195.4 -54.9,-5.6 -109.6,-8.4 -163.6,-8.4"
         style="fill:#371944;fill-opacity:1;fill-rule:nonzero;stroke:none"
         transform="matrix(0.13333333,0,0,-0.13333333,0,5333.3333)" />
      <path
         id="path137"
         d="m 10628.2,32253.3 c -611.9,0 -1146.52,423.7 -1289.36,1015.5 221.37,-377.8 588.65,-669.6 1047.16,-783.7 136.6,-34 273.4,-50.3 408.1,-50.3 351.5,0 688.3,110.8 967.2,306.4 l 112,-381.7 -457.4,102.6 c -9.5,2.1 -19.1,3.1 -28.7,3.1 -24,0 -47.7,-6.5 -68.5,-19.1 -169.2,-102.9 -355.5,-165.4 -553.6,-185.8 -46,-4.7 -91.6,-7 -136.9,-7"
         style="fill:#d70561;fill-opacity:1;fill-rule:nonzero;stroke:none"
         transform="matrix(0.13333333,0,0,-0.13333333,0,5333.3333)" />
      <path
         id="path138"
         d="m 10627.7,32121.7 c -739,0 -1372.93,559.3 -1450.04,1310.4 -7.84,76.3 -9.57,151.9 -5.72,226.2 39.22,-136.8 95.45,-267.6 166.9,-389.5 142.84,-591.8 677.46,-1015.5 1289.36,-1015.5 45.3,0 90.9,2.3 136.9,7 198.1,20.4 384.4,82.9 553.6,185.8 20.8,12.6 44.5,19.1 68.5,19.1 9.6,0 19.2,-1 28.7,-3.1 l 457.4,-102.6 -112,381.7 c 42,29.4 82.7,60.7 121.9,93.9 -2.7,-4.6 -5.3,-9.4 -8.1,-14 l 187.4,-638.9 -675.4,151.5 c -179.6,-109.3 -385.6,-181.4 -608.6,-204.3 -50.7,-5.2 -101,-7.7 -150.8,-7.7"
         style="fill:#371944;fill-opacity:1;fill-rule:nonzero;stroke:none"
         transform="matrix(0.13333333,0,0,-0.13333333,0,5333.3333)" />
      <path
         id="path139"
         d="m 11096.1,33991 v 0 c -126.3,126.3 -331.1,103.6 -457.4,-22.6 l -19.6,-19.7 -19.7,19.7 c -126.3,126.2 -331.1,148.9 -457.4,22.6 v 0 c -126.3,-126.3 -126.3,-331.1 0,-457.4 l 19.7,-19.6 397.1,-397.1 c 33.3,-33.3 87.2,-33.3 120.5,0 l 397.1,397.1 19.7,19.6 c 126.3,126.3 126.3,331.1 0,457.4"
         style="fill:#ffffff;fill-opacity:1;fill-rule:nonzero;stroke:none"
         transform="matrix(0.13333333,0,0,-0.13333333,0,5333.3333)" />
    </g>
  </g>
</svg>
